<?xml version="1.0" encoding="UTF-8"?>
<svg version="1.1" xmlns="http://www.w3.org/2000/svg" width="607" height="607">
<path d="M0 0 C2.47335387 1.91226896 4.79291548 3.90372888 7.09375 6.01953125 C7.87234375 6.71820313 8.6509375 7.416875 9.453125 8.13671875 C15.12848943 13.48832078 19.25291716 19.25190992 23.09375 26.01953125 C23.898125 27.39044922 23.898125 27.39044922 24.71875 28.7890625 C34.27654811 46.25593854 35.97436498 67.64075989 31.05859375 86.828125 C26.17627357 102.97733789 17.25313646 119.05687016 3.09375 129.01953125 C2.43375 129.01953125 1.77375 129.01953125 1.09375 129.01953125 C1.09375 129.67953125 1.09375 130.33953125 1.09375 131.01953125 C-16.22965275 143.41122655 -38.66570267 148.68092267 -59.65625 145.20703125 C-61.4109661 144.83265786 -63.16146364 144.43774722 -64.90625 144.01953125 C-65.67839844 143.84808594 -66.45054688 143.67664063 -67.24609375 143.5 C-79.68594037 140.29172009 -91.4763119 133.64800988 -100.90625 125.01953125 C-101.92912109 124.13394531 -101.92912109 124.13394531 -102.97265625 123.23046875 C-117.41498026 109.9469222 -126.04808662 89.34556632 -127.06640625 69.97265625 C-127.63098915 48.27303536 -120.82918285 28.64360092 -106.90625 12.01953125 C-104.39861335 9.42333494 -101.77125975 7.20673551 -98.90625 5.01953125 C-98.26816406 4.46265625 -97.63007812 3.90578125 -96.97265625 3.33203125 C-87.41645779 -4.76093078 -75.1855191 -10.59173634 -62.90625 -12.98046875 C-62.01808594 -13.1609375 -61.12992187 -13.34140625 -60.21484375 -13.52734375 C-38.56433255 -16.49246689 -18.07656069 -12.31830144 0 0 Z " fill="#69A8D4" transform="translate(154.90625,219.98046875)"/>
<path d="M0 0 C1.15242188 0.00902344 2.30484375 0.01804688 3.4921875 0.02734375 C4.36101562 0.03894531 5.22984375 0.05054688 6.125 0.0625 C6.18107422 0.95001953 6.18107422 0.95001953 6.23828125 1.85546875 C6.66410809 7.11210525 6.66410809 7.11210525 8.8125 11.875 C9.245625 12.596875 9.67875 13.31875 10.125 14.0625 C9.3125 16.375 9.3125 16.375 8.125 18.0625 C6.45888095 18.105221 4.79117115 18.10313832 3.125 18.0625 C2.795 17.7325 2.465 17.4025 2.125 17.0625 C-0.24805578 16.64469121 -0.24805578 16.64469121 -2.875 17.0625 C-3.535 17.7225 -4.195 18.3825 -4.875 19.0625 C-6.875 21.0625 -6.875 21.0625 -9.625 21.3125 C-10.3675 21.23 -11.11 21.1475 -11.875 21.0625 C-11.875 20.4025 -11.875 19.7425 -11.875 19.0625 C-13.195 19.0625 -14.515 19.0625 -15.875 19.0625 C-17.07338209 21.39104463 -17.07338209 21.39104463 -17.875 24.0625 C-17.215 25.0525 -16.555 26.0425 -15.875 27.0625 C-15.49000109 28.71799531 -15.14706865 30.3847433 -14.875 32.0625 C-13.94816406 32.30484375 -13.02132812 32.5471875 -12.06640625 32.796875 C-10.86886719 33.13203125 -9.67132813 33.4671875 -8.4375 33.8125 C-7.24253906 34.13734375 -6.04757813 34.4621875 -4.81640625 34.796875 C-1.875 36.0625 -1.875 36.0625 -0.90234375 38.140625 C-0.89332031 38.77484375 -0.88429688 39.4090625 -0.875 40.0625 C-1.875 41.0625 -1.875 41.0625 -4.0625 41.3125 C-7.5087509 41.00616659 -9.80396318 39.59801841 -12.875 38.0625 C-13.865 38.3925 -14.855 38.7225 -15.875 39.0625 C-15.606875 40.0525 -15.33875 41.0425 -15.0625 42.0625 C-14.51281541 46.24010286 -15.68234085 48.79086902 -18.00390625 52.23046875 C-20.32848928 54.50652186 -22.53421313 55.34200857 -25.5625 56.5 C-29.59551496 57.96282765 -29.59551496 57.96282765 -31.9609375 61.296875 C-32.4774383 63.71645547 -32.4774383 63.71645547 -32.62890625 66.07421875 C-32.875 68.0625 -32.875 68.0625 -34.875 70.0625 C-40.55378725 70.56063923 -44.52044757 69.62629623 -49.8203125 67.6640625 C-52.43849796 66.89752151 -54.32002353 67.15589544 -56.875 68.0625 C-56.875 70.0425 -56.875 72.0225 -56.875 74.0625 C-56.215 74.0625 -55.555 74.0625 -54.875 74.0625 C-54.875 74.7225 -54.875 75.3825 -54.875 76.0625 C-54.276875 76.330625 -53.67875 76.59875 -53.0625 76.875 C-49.56411463 78.77412349 -48.14154546 80.26286361 -46.875 84.0625 C-44.8869916 84.58394483 -42.89587788 85.09839705 -40.88671875 85.53125 C-38.35743664 86.19917693 -36.72104423 87.21645577 -34.875 89.0625 C-34.875 89.7225 -34.875 90.3825 -34.875 91.0625 C-28.53114158 90.30680527 -22.55184119 89.57505058 -16.6875 86.9375 C-12.29413744 84.98489442 -8.76965032 84.76530271 -4.00390625 85.1171875 C-1.56959653 85.24395086 -1.56959653 85.24395086 1.125 83.0625 C4.44740324 83.3866369 5.73276303 83.67026303 8.125 86.0625 C10.19374034 86.7050235 10.19374034 86.7050235 12.125 87.0625 C12.06699219 87.79855469 12.00898437 88.53460938 11.94921875 89.29296875 C11.54129125 95.48985718 11.54129125 95.48985718 14.1875 100.875 C15.156875 101.596875 16.12625 102.31875 17.125 103.0625 C25.85745663 110.26329567 25.85745663 110.26329567 29.125 115.0625 C28.56084281 121.72389454 24.12018809 127.20334746 19.375 131.625 C17.125 133.0625 17.125 133.0625 15.125 133.0625 C15.021875 134.17625 14.91875 135.29 14.8125 136.4375 C14.585625 137.63375 14.35875 138.83 14.125 140.0625 C13.135 140.7225 12.145 141.3825 11.125 142.0625 C10.83625 142.990625 10.5475 143.91875 10.25 144.875 C9.125 148.0625 9.125 148.0625 6.5 150.5 C3.73358112 152.92844826 3.73358112 152.92844826 3.9765625 156.72265625 C4.02554688 157.82480469 4.07453125 158.92695313 4.125 160.0625 C-16.56720699 159.5312495 -35.40060029 153.22171565 -50.875 139.0625 C-51.89787109 138.17691406 -51.89787109 138.17691406 -52.94140625 137.2734375 C-67.38373026 123.98989095 -76.01683662 103.38853507 -77.03515625 84.015625 C-77.59973915 62.31600411 -70.79793285 42.68656967 -56.875 26.0625 C-54.36736335 23.46630369 -51.74000975 21.24970426 -48.875 19.0625 C-48.23691406 18.505625 -47.59882812 17.94875 -46.94140625 17.375 C-37.38520779 9.28203797 -25.1542691 3.45123241 -12.875 1.0625 C-11.92625 0.876875 -10.9775 0.69125 -10 0.5 C-6.62421945 0.02739072 -3.40704839 -0.0347658 0 0 Z " fill="#67A768" transform="translate(104.875,205.9375)"/>
<path d="M0 0 C2.265625 1.765625 2.265625 1.765625 3.09375 4.46875 C3.15046875 5.22671875 3.2071875 5.9846875 3.265625 6.765625 C4.255625 6.765625 5.245625 6.765625 6.265625 6.765625 C10.76679957 14.17481005 12.03111603 20.09520793 11.828125 28.703125 C11.83908203 29.71052734 11.85003906 30.71792969 11.86132812 31.75585938 C11.78126843 40.05538139 10.12722475 48.37763476 5.015625 55.140625 C-2.88207436 62.67933802 -10.77448843 64.93994731 -21.57421875 65.12890625 C-24.734375 64.765625 -24.734375 64.765625 -32.734375 61.765625 C-33.064375 69.685625 -33.394375 77.605625 -33.734375 85.765625 C-37.99568812 87.89628156 -40.11805459 88.03530458 -44.796875 88.015625 C-46.02535156 88.02078125 -47.25382813 88.0259375 -48.51953125 88.03125 C-51.734375 87.765625 -51.734375 87.765625 -54.734375 85.765625 C-55.0259073 82.96000791 -55.12296498 80.37539898 -55.09082031 77.56811523 C-55.09286469 76.72086884 -55.09490906 75.87362244 -55.09701538 75.0007019 C-55.10003103 72.19165684 -55.08152434 69.38319433 -55.0625 66.57421875 C-55.0594439 64.62891282 -55.05756665 62.6836047 -55.05682373 60.73829651 C-55.05221588 56.65853523 -55.03777056 52.57897081 -55.015625 48.49926758 C-54.9873235 43.25758515 -54.97641224 38.01605787 -54.9719429 32.7743063 C-54.9677954 28.75700819 -54.95798386 24.73974177 -54.94606781 20.72245979 C-54.94035229 18.78906574 -54.93559786 16.8556686 -54.93180084 14.92226982 C-54.92496123 12.22603821 -54.91134037 9.52993211 -54.89550781 6.83374023 C-54.89438995 6.02696335 -54.89327209 5.22018646 -54.89212036 4.38896179 C-54.84906149 -1.11968851 -54.84906149 -1.11968851 -53.734375 -2.234375 C-50.87169933 -2.30762668 -48.033656 -2.32675705 -45.171875 -2.296875 C-44.36556641 -2.29236328 -43.55925781 -2.28785156 -42.72851562 -2.28320312 C-40.73043744 -2.27138018 -38.73239717 -2.25344414 -36.734375 -2.234375 C-36.404375 -1.574375 -36.074375 -0.914375 -35.734375 -0.234375 C-35.21488281 -0.51152344 -34.69539062 -0.78867187 -34.16015625 -1.07421875 C-33.46277344 -1.43644531 -32.76539063 -1.79867188 -32.046875 -2.171875 C-31.36238281 -2.53152344 -30.67789063 -2.89117187 -29.97265625 -3.26171875 C-19.94351337 -7.61993267 -9.31565609 -4.63344151 0 0 Z M-32.734375 17.765625 C-32.734375 18.425625 -32.734375 19.085625 -32.734375 19.765625 C-33.724375 20.260625 -33.724375 20.260625 -34.734375 20.765625 C-34.6740576 23.64276513 -34.58691904 26.51493354 -34.484375 29.390625 C-34.47019531 30.19886719 -34.45601562 31.00710938 -34.44140625 31.83984375 C-34.21637101 37.37571068 -33.31947073 40.49316129 -29.734375 44.765625 C-25.26415844 47.00073328 -19.43000879 45.92791059 -14.734375 44.765625 C-12.16944256 42.44497184 -10.82352232 40.03306695 -9.734375 36.765625 C-9.734375 36.105625 -9.734375 35.445625 -9.734375 34.765625 C-9.074375 34.765625 -8.414375 34.765625 -7.734375 34.765625 C-7.19928909 27.27442226 -8.83113285 22.46006602 -13.46875 16.55859375 C-16.49594011 14.16293813 -18.41338406 14.26239694 -22.234375 14.328125 C-23.3584375 14.32941406 -24.4825 14.33070313 -25.640625 14.33203125 C-28.94658679 14.7953668 -30.39518193 15.42069861 -32.734375 17.765625 Z " fill="#326449" transform="translate(570.734375,268.234375)"/>
<path d="M0 0 C0.79296875 2.140625 0.79296875 2.140625 1 4 C1.721875 4.0825 2.44375 4.165 3.1875 4.25 C6.55313254 5.14750201 8.41612816 6.7114278 11 9 C11.66 8.67 12.32 8.34 13 8 C16.86061033 6.71312989 19.94150283 6.86242382 24 7 C24 8.65 24 10.3 24 12 C24.66 12 25.32 12 26 12 C26.125 14.375 26.125 14.375 26 17 C25.34 17.66 24.68 18.32 24 19 C22.68 19 21.36 19 20 19 C19.67 20.32 19.34 21.64 19 23 C17.68 23.33 16.36 23.66 15 24 C15.05800781 25.11117188 15.11601562 26.22234375 15.17578125 27.3671875 C15.50119249 36.41463697 15.32620938 43.25797423 10 51 C9.01 51 8.02 51 7 51 C6.95875 51.556875 6.9175 52.11375 6.875 52.6875 C5.08477046 57.41882092 0.7625472 59.62541541 -3.5625 61.75 C-13.04345307 65.1976193 -23.41100186 64.98673713 -33 62 C-33.33 61.01 -33.66 60.02 -34 59 C-36.01508358 58.26676204 -36.01508358 58.26676204 -38 58 C-37.6507442 54.85669777 -37.16074267 53.20508548 -35.1875 50.6875 C-33 49 -33 49 -29 49 C-28.2861014 46.53155755 -28.2861014 46.53155755 -28 44 C-28.71285156 44.433125 -29.42570312 44.86625 -30.16015625 45.3125 C-40.52732349 51.34024731 -40.52732349 51.34024731 -46 50 C-51.18521188 44.5345064 -52.06938273 37.26984519 -52.25 30 C-52.0047416 21.18432296 -50.19333155 13.63782903 -44 7 C-41.8046875 6.25 -41.8046875 6.25 -40 6 C-39.93425781 5.39542969 -39.86851562 4.79085938 -39.80078125 4.16796875 C-38.66984141 1.106156 -37.10069998 0.66460014 -34.1875 -0.6875 C-33.31480469 -1.10386719 -32.44210937 -1.52023437 -31.54296875 -1.94921875 C-21.9444431 -5.91542981 -8.91735811 -5.61014374 0 0 Z M-10 32 C-8.35 32 -6.7 32 -5 32 C-5 31.34 -5 30.68 -5 30 C-7.32357511 29.81509993 -7.32357511 29.81509993 -10 32 Z " fill="#396556" transform="translate(370,269)"/>
<path d="M0 0 C17.16 0 34.32 0 52 0 C52 5.94 52 11.88 52 18 C40.78 18 29.56 18 18 18 C18 23.61 18 29.22 18 35 C28.56 35 39.12 35 50 35 C50 40.28 50 45.56 50 51 C47.078075 51.973975 45.18267546 52.12882927 42.140625 52.1328125 C41.18929687 52.13410156 40.23796875 52.13539063 39.2578125 52.13671875 C38.26523438 52.13285156 37.27265625 52.12898438 36.25 52.125 C34.78433594 52.13080078 34.78433594 52.13080078 33.2890625 52.13671875 C32.33257812 52.13542969 31.37609375 52.13414062 30.390625 52.1328125 C29.0917334 52.13112061 29.0917334 52.13112061 27.76660156 52.12939453 C24.49295161 51.97628524 21.24429067 51.4634701 18 51 C18 56.61 18 62.22 18 68 C29.22 68 40.44 68 52 68 C52 73.94 52 79.88 52 86 C34.84 86 17.68 86 0 86 C0 57.62 0 29.24 0 0 Z " fill="#29A90C" transform="translate(202,245)"/>
<path d="M0 0 C13.46662428 4.64587833 23.84304926 11.01261438 34 21 C34.69996094 21.68707031 35.39992187 22.37414062 36.12109375 23.08203125 C44.10389611 31.46942008 49.92400895 41.84953246 53 53 C52.34 53 51.68 53 51 53 C50.96261719 54.09699219 50.92523438 55.19398438 50.88671875 56.32421875 C50.82103347 57.77867857 50.75458701 59.23310416 50.6875 60.6875 C50.66494141 61.40873047 50.64238281 62.12996094 50.61914062 62.87304688 C50.39568712 67.32180309 49.90669263 70.42150884 47 74 C45.0625 75.15234375 45.0625 75.15234375 43 75.9375 C39.6255117 77.44485415 39.06171084 77.89971988 37 81.25 C36.67 82.1575 36.34 83.065 36 84 C35.34 84 34.68 84 34 84 C33.93146034 87.90676037 33.90757895 91.45574269 34.5625 95.3125 C35.15452644 100.30243716 34.58448283 105.02739989 34 110 C33.01 110.33 32.02 110.66 31 111 C30.608125 109.7625 30.21625 108.525 29.8125 107.25 C28.64539863 104.06141206 28.14156006 103.11122576 25.375 100.9375 C23 99 23 99 22.1875 95.25 C22.0946875 93.64125 22.0946875 93.64125 22 92 C21.195625 91.731875 20.39125 91.46375 19.5625 91.1875 C18.2940625 90.5996875 18.2940625 90.5996875 17 90 C16.67 89.01 16.34 88.02 16 87 C13.96722527 86.04882642 13.96722527 86.04882642 11.5625 85.4375 C7.19730942 84.19730942 7.19730942 84.19730942 5 82 C2.6667037 81.61247123 2.6667037 81.61247123 0.0625 81.5 C-3.62371105 81.28284471 -4.82134368 81.11910421 -8 79 C-7.58726322 73.73760609 -6.88050973 70.67627237 -3 67 C-0.68745988 65.95281202 1.6485148 64.95653635 4 64 C8.71455188 61.20577894 8.71455188 61.20577894 12 57 C13.485 56.505 13.485 56.505 15 56 C17.55194026 51.93579884 18.63915482 48.79366116 18 44 C16.85602615 42.27159652 16.85602615 42.27159652 15 41 C13.8553125 39.9790625 13.8553125 39.9790625 12.6875 38.9375 C9.83747885 36.88283359 7.35620821 35.96957126 4 35 C3.34 34.67 2.68 34.34 2 34 C2.44161252 31.0191155 3.12020011 29.8585881 5.125 27.5 C7.28857755 25.20768627 7.28857755 25.20768627 6.75 22.6875 C6.5025 22.130625 6.255 21.57375 6 21 C5.38125 20.896875 4.7625 20.79375 4.125 20.6875 C2 20 2 20 0 17 C-3.55672179 15.7811879 -3.55672179 15.7811879 -7 15 C-6.401875 14.01 -5.80375 13.02 -5.1875 12 C-2.96690376 8.1356884 -1.47402877 4.20098198 0 0 Z " fill="#68A868" transform="translate(132,209)"/>
<path d="M0 0 C2.69398334 1.96965763 3.99255328 3.46310089 5.03125 6.6484375 C3.24027328 12.61835989 -2.92892514 15.45522093 -7.90625 18.7734375 C-11.62373009 18.66722378 -13.86834787 17.18692866 -16.84375 15.1484375 C-19.63902565 13.33911274 -20.61134671 12.77933557 -24.03125 12.7109375 C-27.44427833 13.97227406 -30.05252557 15.51700423 -32.90625 17.7734375 C-33.95961511 20.93353283 -34.10657888 23.3287511 -34.15625 26.6484375 C-34.18203125 27.67710937 -34.2078125 28.70578125 -34.234375 29.765625 C-33.86104254 33.18783925 -32.76931096 34.92238967 -30.90625 37.7734375 C-30.21875 40.0859375 -30.21875 40.0859375 -29.90625 41.7734375 C-20.96028256 41.25077859 -20.96028256 41.25077859 -13.40625 37.0859375 C-10.90625 34.7734375 -10.90625 34.7734375 -8.46875 34.5859375 C-5.34902662 36.03166297 -3.14674749 37.95615695 -0.65234375 40.30078125 C1.16478676 41.83334993 2.93540756 42.79580755 5.09375 43.7734375 C5.09375 47.58350241 4.97205336 49.7442085 2.45703125 52.69140625 C-6.13272061 60.36491791 -13.78725897 62.14225528 -25.10546875 62.05859375 C-30.91739191 61.62255018 -36.69797125 60.46479685 -41.90625 57.7734375 C-42.76171875 55.6328125 -42.76171875 55.6328125 -42.90625 53.7734375 C-43.66292969 53.69480469 -44.41960937 53.61617188 -45.19921875 53.53515625 C-49.38101029 52.35846166 -50.52933069 49.68971368 -52.74609375 46.140625 C-54.18056607 43.21372188 -54.40064149 40.98698219 -53.90625 37.7734375 C-54.89625 37.7734375 -55.88625 37.7734375 -56.90625 37.7734375 C-58.5093734 25.79829885 -57.38725991 15.1823322 -50.90625 4.7734375 C-48.77734375 4.06640625 -48.77734375 4.06640625 -46.90625 3.7734375 C-46.82632812 3.17789062 -46.74640625 2.58234375 -46.6640625 1.96875 C-45.18956668 -2.30272758 -40.68639627 -4.12304412 -36.90625 -6.2265625 C-23.78865024 -11.67160391 -11.24272663 -7.23404951 0 0 Z " fill="#29AA0D" transform="translate(315.90625,271.2265625)"/>
<path d="M0 0 C21.78 0 43.56 0 66 0 C66 5.61 66 11.22 66 17 C58.08 17 50.16 17 42 17 C42.495 17.99 42.495 17.99 43 19 C43.09670729 21.05221193 43.12796604 23.10762062 43.12939453 25.16210938 C43.13254669 26.45685181 43.13569885 27.75159424 43.13894653 29.08557129 C43.1371567 30.50496454 43.13510573 31.92435748 43.1328125 33.34375 C43.13348585 34.79341651 43.13445613 36.2430829 43.13571167 37.69274902 C43.13718719 40.73251418 43.13503875 43.77224997 43.13037109 46.81201172 C43.12467388 50.71287117 43.12795366 54.61366182 43.13394356 58.51451874 C43.13755309 61.50844849 43.13640878 64.50236187 43.13381577 67.49629211 C43.13314758 68.93483997 43.13397114 70.37338929 43.13629532 71.81193542 C43.1388282 73.82058688 43.13428475 75.82924353 43.12939453 77.83789062 C43.12859894 78.98213501 43.12780334 80.12637939 43.12698364 81.30529785 C43 84 43 84 42 86 C38.50953395 87.16348868 35.67722983 87.16834776 32 87.1875 C30.7625 87.20167969 29.525 87.21585937 28.25 87.23046875 C25 87 25 87 22 85 C21.63923645 82.21591187 21.63923645 82.21591187 21.65942383 78.62255859 C21.65876671 77.64188667 21.65876671 77.64188667 21.65809631 76.6414032 C21.66018919 74.47677925 21.6835422 72.3129264 21.70703125 70.1484375 C21.71262547 68.64914371 21.71689639 67.14984444 21.71989441 65.65054321 C21.73135702 61.70154723 21.760836 57.75288148 21.79400635 53.80401611 C21.82467695 49.77563953 21.83839328 45.74720965 21.85351562 41.71875 C21.88570475 33.81233145 21.93848385 25.90624483 22 18 C14.74 17.67 7.48 17.34 0 17 C0 11.39 0 5.78 0 0 Z " fill="#296143" transform="translate(379,245)"/>
<path d="M0 0 C1.65 0.33 3.3 0.66 5 1 C4.67 4.63 4.34 8.26 4 12 C4.99 11.34 5.98 10.68 7 10 C12.72534569 10.2202056 16.28216236 12.01524558 21 15 C21 16.98 21 18.96 21 21 C21.88751953 21.03867187 21.88751953 21.03867187 22.79296875 21.078125 C29.83840057 21.58383299 32.68873376 23.63370361 37.625 28.6875 C40.29157412 31.28390111 41.91300611 31.86743977 45.5625 32.3125 C48 33 48 33 49.3125 34.8125 C50 37 50 37 50 41 C49.18595703 41.34611328 49.18595703 41.34611328 48.35546875 41.69921875 C44.96792726 43.24344938 42.46019298 44.46790187 40 47.3125 C38.48168761 51.39296455 38.42882225 55.00087787 39.625 59.1875 C42.04264681 62.37439807 45.40791309 64.38901462 49.1171875 65.8125 C51 67 51 67 51.765625 69.2421875 C51.92546875 70.11101562 52.0853125 70.97984375 52.25 71.875 C53.13521687 75.66309917 53.13521687 75.66309917 55.82421875 78.23046875 C57.23199414 78.78473152 58.64217315 79.33292807 60.0546875 79.875 C63.26051566 81.72897291 64.15312713 84.55520492 65.50390625 87.87890625 C66 90 66 90 65 93 C50.00148912 89.43785367 36.47518073 83.49989412 25 73 C23.97712891 72.11441406 23.97712891 72.11441406 22.93359375 71.2109375 C9.68510321 59.0254374 -0.06536225 38.99931406 -1 21 C-1.18880344 13.93218424 -1.32662365 6.96477415 0 0 Z " fill="#649EC7" transform="translate(29,272)"/>
<path d="M0 0 C1.12148438 0.01546875 2.24296875 0.0309375 3.3984375 0.046875 C10.89373385 0.51873385 10.89373385 0.51873385 13.625 3.25 C14.223125 2.755 14.82125 2.26 15.4375 1.75 C20.10836634 -0.44805475 24.5445716 0.00976959 29.625 0.25 C29.65388146 3.56248187 29.67175799 6.87493167 29.6875 10.1875 C29.69587891 11.13302734 29.70425781 12.07855469 29.71289062 13.05273438 C29.71611328 13.95185547 29.71933594 14.85097656 29.72265625 15.77734375 C29.72789307 16.60999756 29.73312988 17.44265137 29.73852539 18.30053711 C29.625 20.25 29.625 20.25 28.625 21.25 C26.17313683 21.45432193 23.72357857 21.56907368 21.265625 21.67578125 C17.67824028 22.45587822 16.16013018 23.5771307 13.625 26.25 C13.14598654 29.29936225 12.97272897 31.80317345 13.0234375 34.84765625 C13.01543121 35.67833115 13.00742493 36.50900604 12.99917603 37.36485291 C12.97611271 40.0145665 12.98557171 42.66274506 13 45.3125 C13.00384463 47.96553717 13.00044363 50.61789809 12.97940063 53.27085876 C12.96728909 54.92020101 12.97001765 56.56973313 12.98910522 58.2190094 C12.96209431 63.74318807 12.96209431 63.74318807 11.2890625 66.25854492 C8.64610492 67.8332296 6.28498249 67.5694504 3.25 67.5 C2.12851562 67.48453125 1.00703125 67.4690625 -0.1484375 67.453125 C-2.99240668 67.27408578 -5.60439793 66.89336078 -8.375 66.25 C-9.43363448 63.07409655 -9.51443616 60.78627978 -9.53613281 57.44921875 C-9.54574036 56.2578833 -9.5553479 55.06654785 -9.56524658 53.83911133 C-9.56949646 52.55157959 -9.57374634 51.26404785 -9.578125 49.9375 C-9.58387821 48.60375975 -9.58963592 47.27001951 -9.59539795 45.9362793 C-9.60589481 43.14208593 -9.61174663 40.34792124 -9.61523438 37.55371094 C-9.62072824 33.97232262 -9.64478021 30.39131274 -9.67320633 26.81004333 C-9.6918194 24.05626307 -9.69703749 21.30257443 -9.69857025 18.54873657 C-9.70307094 16.58607591 -9.72171941 14.62346426 -9.74053955 12.66088867 C-9.73753845 11.46955322 -9.73453735 10.27821777 -9.73144531 9.05078125 C-9.73509094 8.00059814 -9.73873657 6.95041504 -9.74249268 5.8684082 C-9.375 3.25 -9.375 3.25 -8.03778076 1.40795898 C-5.43218582 -0.40657492 -3.12212626 -0.07144454 0 0 Z " fill="#296143" transform="translate(451.375,264.75)"/>
<path d="M0 0 C1.23105469 0.01417969 2.46210938 0.02835937 3.73046875 0.04296875 C5.56544922 0.05263672 5.56544922 0.05263672 7.4375 0.0625 C10.39459674 0.20521062 13.0464344 0.5467701 15.91796875 1.23046875 C16.96163193 4.3614583 17.04477988 6.54686228 17.04736328 9.83178711 C17.05051544 10.97985336 17.0536676 12.12791962 17.05691528 13.31077576 C17.05489105 14.55142288 17.05286682 15.79207001 17.05078125 17.0703125 C17.05221634 18.9807711 17.05221634 18.9807711 17.05368042 20.92982483 C17.05436151 23.62569564 17.05301289 26.32147607 17.04833984 29.01733398 C17.04264846 32.46844853 17.0459197 35.91948521 17.05191231 39.37059689 C17.05640106 42.66633819 17.05325507 45.96207018 17.05078125 49.2578125 C17.05280548 50.49643539 17.05482971 51.73505829 17.05691528 53.01121521 C17.05376312 54.16243362 17.05061096 55.31365204 17.04736328 56.49975586 C17.04656769 57.51218857 17.04577209 58.52462128 17.04495239 59.56773376 C16.93135911 61.94968467 16.59979744 63.95476663 15.91796875 66.23046875 C11.99914654 67.14779605 8.31451198 67.39485643 4.29296875 67.41796875 C3.16632813 67.43214844 2.0396875 67.44632812 0.87890625 67.4609375 C-2.08203125 67.23046875 -2.08203125 67.23046875 -5.08203125 65.23046875 C-5.45625305 62.61169434 -5.45625305 62.61169434 -5.4543457 59.25195312 C-5.46057449 57.9972522 -5.46680328 56.74255127 -5.47322083 55.4498291 C-5.464533 54.07462163 -5.45521505 52.69941801 -5.4453125 51.32421875 C-5.44479404 49.91939291 -5.44531121 48.51456633 -5.44682312 47.10974121 C-5.44673334 44.16403385 -5.43629292 41.21859987 -5.41821289 38.27294922 C-5.39552524 34.49306511 -5.39498091 30.71358061 -5.40173054 26.93364716 C-5.40506866 24.03233271 -5.39844345 21.13110973 -5.3886013 18.22981262 C-5.38474628 16.83592711 -5.38360234 15.44203142 -5.38518715 14.04814148 C-5.38555712 12.10173263 -5.37147597 10.15533709 -5.35668945 8.20898438 C-5.35208206 7.10026978 -5.34747467 5.99155518 -5.34272766 4.84924316 C-4.94857351 0.88984529 -3.90677263 0.29214143 0 0 Z " fill="#33644A" transform="translate(491.08203125,264.76953125)"/>
<path d="M0 0 C3.56537458 0.36381373 3.67717553 0.92530557 6.0625 3.3125 C7.9542446 4.09915062 7.9542446 4.09915062 10.0390625 4.55859375 C10.791875 4.75646484 11.5446875 4.95433594 12.3203125 5.15820312 C13.90488092 5.55434523 15.4908485 5.94493015 17.078125 6.33007812 C19.3515625 6.93359375 19.3515625 6.93359375 23.0625 8.3125 C23.79443359 10.39868164 23.79443359 10.39868164 24.0625 12.3125 C24.7225 12.3125 25.3825 12.3125 26.0625 12.3125 C26.0625 12.9725 26.0625 13.6325 26.0625 14.3125 C22.7625 15.9625 19.4625 17.6125 16.0625 19.3125 C16.0625 18.6525 16.0625 17.9925 16.0625 17.3125 C14.4125 17.6425 12.7625 17.9725 11.0625 18.3125 C11.578125 18.6425 12.09375 18.9725 12.625 19.3125 C14.39477513 21.77479584 14.13408882 22.56742998 13.75 25.5 C13.523125 26.758125 13.29625 28.01625 13.0625 29.3125 C12.43601562 29.49425781 11.80953125 29.67601562 11.1640625 29.86328125 C10.34679687 30.11464844 9.52953125 30.36601562 8.6875 30.625 C7.46933594 30.99044922 7.46933594 30.99044922 6.2265625 31.36328125 C3.73065371 32.22618185 3.73065371 32.22618185 2.0625 35.3125 C4.0425 34.8175 4.0425 34.8175 6.0625 34.3125 C2.82079988 37.87837013 0.36376893 39.12660444 -4.4375 39.8125 C-7.9375 39.3125 -7.9375 39.3125 -10.25 36.875 C-15.11562689 26.60312102 -14.86236478 16.12405376 -11.9375 5.3125 C-10.9475 6.7975 -10.9475 6.7975 -9.9375 8.3125 C-9.2775 8.3125 -8.6175 8.3125 -7.9375 8.3125 C-7.256875 6.889375 -7.256875 6.889375 -6.5625 5.4375 C-3.95371622 0.42060811 -3.95371622 0.42060811 0 0 Z " fill="#346251" transform="translate(331.9375,279.6875)"/>
<path d="M0 0 C8.63083744 -0.45359146 17.41147021 -0.77414301 25 4 C25.60546875 6.078125 25.60546875 6.078125 26 8 C26.99 8.33 27.98 8.66 29 9 C28.67 9.66 28.34 10.32 28 11 C28.66 11 29.32 11 30 11 C30.1546875 11.9590625 30.1546875 11.9590625 30.3125 12.9375 C30.539375 13.618125 30.76625 14.29875 31 15 C31.99 15.33 32.98 15.66 34 16 C34.144375 17.11375 34.28875 18.2275 34.4375 19.375 C34.78372035 22.82142047 34.78372035 22.82142047 36 25 C33.98177083 24.70703125 31.96354167 24.4140625 29.9453125 24.12109375 C27.91859333 23.8315703 27.91859333 23.8315703 26 25 C21.21403037 25.46692387 17.61273109 24.32622374 13.1875 22.7265625 C10.81860044 21.87472653 10.81860044 21.87472653 7.5 21.4375 C6.2625 21.2209375 6.2625 21.2209375 5 21 C4.67 20.34 4.34 19.68 4 19 C0.73449496 17.88900861 -2.57202247 17.00854817 -5.8984375 16.09765625 C-8.80966144 15.06736163 -10.11890182 14.37505561 -12 12 C-7.375 6.25 -7.375 6.25 -4 4 C-3.01 4 -2.02 4 -1 4 C-0.67 2.68 -0.34 1.36 0 0 Z " fill="#376455" transform="translate(345,265)"/>
<path d="M0 0 C0 0.99 0 1.98 0 3 C-1.72526042 3.87890625 -3.45052083 4.7578125 -5.17578125 5.63671875 C-7.53256342 7.39799707 -8.61665126 9.43335603 -10 12 C-8.89591797 12.39832031 -8.89591797 12.39832031 -7.76953125 12.8046875 C-6.79371094 13.15789062 -5.81789063 13.51109375 -4.8125 13.875 C-3.84957031 14.22304688 -2.88664062 14.57109375 -1.89453125 14.9296875 C0.75634859 15.90990488 3.3813098 16.93720434 6 18 C6 18.66 6 19.32 6 20 C6.78375 19.938125 7.5675 19.87625 8.375 19.8125 C11.6549385 19.98215199 13.91367132 20.50696675 17 21.5 C21.47886601 22.9257051 25.41284248 23.8893354 30 22.3125 C33.19161371 21.81381036 35.28201043 23.45568774 38 25 C34.88225012 28.29590701 31.96519388 30.79711451 28 33 C27.67 33.33 27.34 33.66 27 34 C25.33391013 34.04384447 23.66619446 34.0396713 22 34 C21.01 34 20.02 34 19 34 C18.01 34 17.02 34 16 34 C16 34.66 16 35.32 16 36 C18.31 36 20.62 36 23 36 C22.0026554 43.04007955 20.7758018 49.43901392 18 56 C16.68 56 15.36 56 14 56 C14 54.35 14 52.7 14 51 C14.66 51 15.32 51 16 51 C16.33 46.71 16.66 42.42 17 38 C15.68 37.67 14.36 37.34 13 37 C13.268125 37.721875 13.53625 38.44375 13.8125 39.1875 C14 42 14 42 11.9375 44.8125 C8.58343751 47.31020611 7.07655174 47.47401764 3 47 C4.98 44.525 4.98 44.525 7 42 C4.03 42.495 4.03 42.495 1 43 C1.0825 41.7625 1.165 40.525 1.25 39.25 C1.2737948 35.89493302 1.19641677 35.24552096 -1 32.5 C-1.66 32.005 -2.32 31.51 -3 31 C0.33333333 31 3.66666667 31 7 31 C7.66 30.505 8.32 30.01 9 29.5 C11 28 11 28 14 28 C14 27.34 14 26.68 14 26 C13.34 26 12.68 26 12 26 C11.505 24.02 11.505 24.02 11 22 C9.906875 21.9175 8.81375 21.835 7.6875 21.75 C2.25253243 21.06819403 -3.11511304 19.48966119 -8 17 C-8.33 16.01 -8.66 15.02 -9 14 C-13.7963081 14.71435205 -13.7963081 14.71435205 -17.35546875 17.69140625 C-18.32087881 19.41659751 -19.16943988 21.20599015 -20 23 C-20.99 22.67 -21.98 22.34 -23 22 C-22.63308565 15.8847608 -21.26904179 13.16739794 -17 9 C-16.01 9 -15.02 9 -14 9 C-13.93554688 8.39671875 -13.87109375 7.7934375 -13.8046875 7.171875 C-12.66369796 4.092311 -11.04903576 3.62302549 -8.125 2.25 C-7.24070312 1.82203125 -6.35640625 1.3940625 -5.4453125 0.953125 C-3 0 -3 0 0 0 Z " fill="#638177" transform="translate(344,266)"/>
<path d="M0 0 C1.47583955 0.0001591 2.95168467 0.00585225 4.42749023 0.01586914 C5.20293686 0.01728409 5.97838348 0.01869904 6.77732849 0.02015686 C9.26361893 0.02577194 11.74982059 0.03832693 14.23608398 0.05102539 C15.91772331 0.05603845 17.59936405 0.06060169 19.28100586 0.06469727 C23.41189965 0.07574626 27.54272674 0.09302094 31.67358398 0.11352539 C31.67358398 0.77352539 31.67358398 1.43352539 31.67358398 2.11352539 C20.45358398 2.11352539 9.23358398 2.11352539 -2.32641602 2.11352539 C-2.32641602 7.72352539 -2.32641602 13.33352539 -2.32641602 19.11352539 C8.23358398 19.11352539 18.79358398 19.11352539 29.67358398 19.11352539 C29.67358398 24.39352539 29.67358398 29.67352539 29.67358398 35.11352539 C26.75165899 36.08750039 24.85625945 36.24235466 21.81420898 36.24633789 C20.86288086 36.24762695 19.91155273 36.24891602 18.93139648 36.25024414 C17.93881836 36.24637695 16.94624023 36.24250977 15.92358398 36.23852539 C14.45791992 36.24432617 14.45791992 36.24432617 12.96264648 36.25024414 C12.00616211 36.24895508 11.04967773 36.24766602 10.06420898 36.24633789 C9.19828125 36.24520996 8.33235352 36.24408203 7.44018555 36.24291992 C4.1665356 36.08981063 0.91787465 35.57699549 -2.32641602 35.11352539 C-2.32641602 40.72352539 -2.32641602 46.33352539 -2.32641602 52.11352539 C8.89358398 52.11352539 20.11358398 52.11352539 31.67358398 52.11352539 C31.67358398 52.77352539 31.67358398 53.43352539 31.67358398 54.11352539 C19.79358398 54.11352539 7.91358398 54.11352539 -4.32641602 54.11352539 C-4.32641602 46.85352539 -4.32641602 39.59352539 -4.32641602 32.11352539 C-0.83318139 31.24021674 1.96801599 30.92443853 5.53295898 30.79711914 C6.64799805 30.75522461 7.76303711 30.71333008 8.91186523 30.67016602 C10.65016602 30.61119141 10.65016602 30.61119141 12.42358398 30.55102539 C13.59791992 30.5078418 14.77225586 30.4646582 15.98217773 30.42016602 C18.87919849 30.31417745 21.77630333 30.21210901 24.67358398 30.11352539 C25.00358398 27.80352539 25.33358398 25.49352539 25.67358398 23.11352539 C16.10358398 22.78352539 6.53358398 22.45352539 -3.32641602 22.11352539 C-4.4922352 19.78188703 -4.45547211 18.39199057 -4.45922852 15.79711914 C-4.46051758 14.95084961 -4.46180664 14.10458008 -4.46313477 13.23266602 C-4.45926758 12.34772461 -4.45540039 11.4627832 -4.45141602 10.55102539 C-4.4552832 9.6622168 -4.45915039 8.7734082 -4.46313477 7.85766602 C-4.4618457 7.01268555 -4.46055664 6.16770508 -4.45922852 5.29711914 C-4.45810059 4.51908936 -4.45697266 3.74105957 -4.45581055 2.93945312 C-4.2224937 -0.35295573 -3.38556006 0.11554388 0 0 Z " fill="#5AAF4C" transform="translate(222.326416015625,260.886474609375)"/>
<path d="M0 0 C3.39488422 2.05107588 4.80323081 3.70484621 7 7 C7.265625 9.375 7.265625 9.375 7.25 12 C7.25515625 12.86625 7.2603125 13.7325 7.265625 14.625 C7 17 7 17 5 20 C4.01 20 3.02 20 2 20 C2 20.99 2 21.98 2 23 C-2.95 23 -7.9 23 -13 23 C-13 22.01 -13 21.02 -13 20 C-13.639375 19.87625 -14.27875 19.7525 -14.9375 19.625 C-15.9584375 19.315625 -15.9584375 19.315625 -17 19 C-18.86356079 15.27287842 -18.56549975 11.0579268 -18 7 C-14.17678621 -0.39548305 -7.55333035 -0.8928857 0 0 Z " fill="#316247" transform="translate(502,234)"/>
<path d="M0 0 C1.485 0.99 1.485 0.99 3 2 C3.36076355 4.4803772 3.36076355 4.4803772 3.34057617 7.64306641 C3.34034958 8.82413971 3.34012299 10.00521301 3.33988953 11.22207642 C3.32440567 12.50230682 3.30892181 13.78253723 3.29296875 15.1015625 C3.28872391 16.40829926 3.28447906 17.71503601 3.28010559 19.06137085 C3.26864632 22.53691786 3.23917049 26.01208927 3.20599365 29.48748779 C3.17531569 33.0332735 3.16160516 36.57911985 3.14648438 40.125 C3.11430135 47.08348771 3.06309229 54.04172583 3 61 C4.485 60.505 4.485 60.505 6 60 C9.63 60 13.26 60 17 60 C17 47.79 17 35.58 17 23 C17.99 23 18.98 23 20 23 C20 22.01 20 21.02 20 20 C20.66 20 21.32 20 22 20 C22.66 18.68 23.32 17.36 24 16 C28.62 16 33.24 16 38 16 C37.505 17.485 37.505 17.485 37 19 C36.33613281 19.02578125 35.67226563 19.0515625 34.98828125 19.078125 C34.10527344 19.13484375 33.22226562 19.1915625 32.3125 19.25 C31.44238281 19.29640625 30.57226562 19.3428125 29.67578125 19.390625 C26.08410279 20.20858389 24.54466493 21.31694975 22 24 C21.52098654 27.04936225 21.34772897 29.55317345 21.3984375 32.59765625 C21.39043121 33.42833115 21.38242493 34.25900604 21.37417603 35.11485291 C21.35111271 37.7645665 21.36057171 40.41274506 21.375 43.0625 C21.37884463 45.71553717 21.37544363 48.36789809 21.35440063 51.02085876 C21.34228909 52.67020101 21.34501765 54.31973313 21.36410522 55.9690094 C21.33709431 61.49318807 21.33709431 61.49318807 19.6640625 64.00854492 C17.02110492 65.5832296 14.65998249 65.3194504 11.625 65.25 C10.50351562 65.23453125 9.38203125 65.2190625 8.2265625 65.203125 C5.38259332 65.02408578 2.77060207 64.64336078 0 64 C-1.06476938 60.80569185 -1.12686607 58.52422243 -1.12939453 55.16748047 C-1.13254669 53.96968964 -1.13569885 52.7718988 -1.13894653 51.53781128 C-1.1369223 50.24400543 -1.13489807 48.95019958 -1.1328125 47.6171875 C-1.13348604 46.27865583 -1.13445648 44.94012427 -1.13571167 43.60159302 C-1.13718527 40.79899936 -1.13504424 37.9964376 -1.13037109 35.19384766 C-1.12466297 31.59446626 -1.12796176 27.99515925 -1.13394356 24.39578056 C-1.13754889 21.63350865 -1.13641091 18.87125452 -1.13381577 16.10898209 C-1.13282101 14.13408612 -1.13586634 12.15918947 -1.13894653 10.18429565 C-1.13421829 8.39706589 -1.13421829 8.39706589 -1.12939453 6.57373047 C-1.12859894 5.51910614 -1.12780334 4.46448181 -1.12698364 3.37789917 C-1 1 -1 1 0 0 Z " fill="#558567" transform="translate(443,267)"/>
<path d="M0 0 C0 0.66 0 1.32 0 2 C-4.94881513 2.90896604 -9.06532787 3.08562787 -14 2 C-14.495 1.01 -14.495 1.01 -15 0 C-20.64033805 -0.55027688 -23.42577266 0.95051511 -28 4 C-28.33 4.66 -28.66 5.32 -29 6 C-31.32156597 6.40729228 -33.6568787 6.74438677 -36 7 C-36.0825 7.78375 -36.165 8.5675 -36.25 9.375 C-36.4975 10.24125 -36.745 11.1075 -37 12 C-37.64026123 12.30236572 -38.28052246 12.60473145 -38.94018555 12.91625977 C-41.53894294 14.28355668 -41.83747094 15.20477309 -42.70703125 17.96484375 C-44.23933217 23.14271368 -44.54953623 28.18979675 -44.6875 33.5625 C-44.72166016 34.47580078 -44.75582031 35.38910156 -44.79101562 36.33007812 C-44.87249358 38.55326229 -44.94195738 40.77610197 -45 43 C-44.34 43 -43.68 43 -43 43 C-41.5216774 45.95664519 -41.93967217 48.74229737 -42 52 C-42.99 52 -43.98 52 -45 52 C-47.09350689 48.5980513 -47.17942163 45.94727588 -47 42 C-47.99 42 -48.98 42 -50 42 C-51.6031234 30.02486135 -50.48100991 19.4088947 -44 9 C-41.87109375 8.29296875 -41.87109375 8.29296875 -40 8 C-39.92007812 7.40445312 -39.84015625 6.80890625 -39.7578125 6.1953125 C-38.28331668 1.92383492 -33.78014627 0.10351838 -30 -2 C-20.46520826 -5.95783808 -8.962074 -5.01876144 0 0 Z " fill="#5FB64C" transform="translate(309,267)"/>
<path d="M0 0 C17.16 0 34.32 0 52 0 C52 0.33 52 0.66 52 1 C35.5 1 19 1 2 1 C2 28.39 2 55.78 2 84 C18.5 84 35 84 52 84 C52 84.66 52 85.32 52 86 C34.84 86 17.68 86 0 86 C0 57.62 0 29.24 0 0 Z " fill="#6EBB62" transform="translate(202,245)"/>
<path d="M0 0 C21.78 0 43.56 0 66 0 C66 5.61 66 11.22 66 17 C65.34 17 64.68 17 64 17 C64 12.05 64 7.1 64 2 C62.40478516 2.10828125 62.40478516 2.10828125 60.77734375 2.21875 C41.86970948 3.36114987 22.93297102 3.09253652 4 3 C4 6.96 4 10.92 4 15 C10.6 15 17.2 15 24 15 C23.67 15.66 23.34 16.32 23 17 C15.41 17 7.82 17 0 17 C0 11.39 0 5.78 0 0 Z " fill="#537764" transform="translate(379,245)"/>
<path d="M0 0 C16.5 0 33 0 50 0 C50 4.95 50 9.9 50 15 C38.78 15 27.56 15 16 15 C16 14.67 16 14.34 16 14 C19.79074537 13.11436911 23.28695898 12.88318699 27.17578125 12.90234375 C28.33271484 12.90556641 29.48964844 12.90878906 30.68164062 12.91210938 C31.87982422 12.92048828 33.07800781 12.92886719 34.3125 12.9375 C36.1387793 12.94426758 36.1387793 12.94426758 38.00195312 12.95117188 C41.00135226 12.96293422 44.00065089 12.97937174 47 13 C46.98839844 12.38511719 46.97679687 11.77023437 46.96484375 11.13671875 C46.95582031 10.32847656 46.94679687 9.52023438 46.9375 8.6875 C46.92589844 7.88699219 46.91429687 7.08648437 46.90234375 6.26171875 C47 4 47 4 48 1 C46.14375 1.10828125 46.14375 1.10828125 44.25 1.21875 C30.49053169 1.97219673 16.77794893 2.11692998 3 2 C2.08122186 29.00621266 1.87578089 55.97947681 2 83 C1.34 83 0.68 83 0 83 C0 55.61 0 28.22 0 0 Z " fill="#309E19" transform="translate(204,246)"/>
<path d="M0 0 C1.48445129 1.10578918 1.48445129 1.10578918 3 3 C3.32279968 5.82841492 3.32279968 5.82841492 3.2487793 9.30737305 C3.22853195 10.60849533 3.20828461 11.90961761 3.18742371 13.25016785 C3.15001371 14.67069341 3.11227088 16.09121024 3.07421875 17.51171875 C3.04618285 18.9647221 3.01949273 20.41775198 2.99409485 21.87080383 C2.92366003 25.69341512 2.83493956 29.51539209 2.74243164 33.33752441 C2.65124544 37.23846993 2.57732153 41.13973812 2.50195312 45.04101562 C2.35154754 52.69445009 2.18023301 60.3471992 2 68 C6.62 68 11.24 68 16 68 C16 68.33 16 68.66 16 69 C10.06 69 4.12 69 -2 69 C-2.04516298 60.44647897 -2.08186541 51.89305044 -2.10362434 43.33944225 C-2.11406689 39.36777 -2.12823463 35.39618346 -2.15087891 31.42456055 C-2.17259058 27.59257984 -2.18456508 23.76068165 -2.18975449 19.92864418 C-2.19345326 18.46578993 -2.20067596 17.00294025 -2.21146011 15.54012108 C-2.22595298 13.49303764 -2.2279789 11.44629631 -2.22705078 9.39916992 C-2.231492 8.23334885 -2.23593323 7.06752777 -2.24050903 5.86637878 C-2 3 -2 3 0 0 Z " fill="#23543C" transform="translate(403,260)"/>
<path d="M0 0 C2.61580453 0.46710795 3.8992964 0.91229041 5.9375 2.6875 C6.9584375 3.3371875 6.9584375 3.3371875 8 4 C9.68834592 3.39031953 11.35202764 2.71162443 13 2 C15.69313688 1.81443936 18.29583689 1.90833345 21 2 C21 3.65 21 5.3 21 7 C21.66 7 22.32 7 23 7 C23.125 9.375 23.125 9.375 23 12 C22.34 12.66 21.68 13.32 21 14 C19.68 14 18.36 14 17 14 C16.67 15.32 16.34 16.64 16 18 C14.68 18.33 13.36 18.66 12 19 C12 24.61 12 30.22 12 36 C11.34 36 10.68 36 10 36 C9.98541748 35.40461426 9.97083496 34.80922852 9.95581055 34.19580078 C9.88145656 31.50486949 9.78475813 28.81519667 9.6875 26.125 C9.66494141 25.18785156 9.64238281 24.25070312 9.61914062 23.28515625 C9.58369141 22.38925781 9.54824219 21.49335938 9.51171875 20.5703125 C9.48553467 19.74289551 9.45935059 18.91547852 9.43237305 18.06298828 C9.16903363 15.60672068 9.16903363 15.60672068 6 14 C5.8125 10.375 5.8125 10.375 6 7 C4.68 6.67 3.36 6.34 2 6 C2 4.68 2 3.36 2 2 C1.34 2 0.68 2 0 2 C0 1.34 0 0.68 0 0 Z " fill="#5C756D" transform="translate(373,274)"/>
<path d="M0 0 C0.66 0 1.32 0 2 0 C3.10544517 3.3163355 3.12696105 5.78252784 3.12939453 9.27563477 C3.13254669 10.57030167 3.13569885 11.86496857 3.13894653 13.1988678 C3.13715683 14.61304763 3.1351059 16.02722715 3.1328125 17.44140625 C3.13348605 18.88964352 3.1344565 20.33788067 3.13571167 21.78611755 C3.13718577 24.81990639 3.13504301 27.85366576 3.13037109 30.88745117 C3.12466888 34.78043488 3.12795773 38.67334972 3.13394356 42.56633091 C3.13755259 45.55596946 3.13640909 48.5455916 3.13381577 51.53523064 C3.13314771 52.9709874 3.1339707 54.40674565 3.13629532 55.84250069 C3.13882794 57.84625343 3.13428502 59.85001139 3.12939453 61.85375977 C3.12859894 62.99498795 3.12780334 64.13621613 3.12698364 65.31202698 C3 68 3 68 2 70 C-1.48027742 71.16009247 -4.33321643 71.20416521 -8 71.25 C-9.85625 71.28867187 -9.85625 71.28867187 -11.75 71.328125 C-15 71 -15 71 -18 68 C-12.06 68 -6.12 68 0 68 C0 45.56 0 23.12 0 0 Z " fill="#4F7662" transform="translate(419,261)"/>
<path d="M0 0 C0 0.66 0 1.32 0 2 C1.32 2.33 2.64 2.66 4 3 C4 3.99 4 4.98 4 6 C3.01 5.7525 2.02 5.505 1 5.25 C-3.07899258 4.66016604 -5.70366619 5.86885962 -9.30078125 7.69921875 C-11.41992523 9.32146 -12.10824024 10.4836482 -13 13 C-13.35335815 15.87730058 -13.35335815 15.87730058 -13.3125 18.9375 C-13.32925781 19.95714844 -13.34601563 20.97679687 -13.36328125 22.02734375 C-12.95049512 25.40508829 -11.8376082 27.17613119 -10 30 C-9.3125 32.3125 -9.3125 32.3125 -9 34 C-8.30132812 33.98839844 -7.60265625 33.97679687 -6.8828125 33.96484375 C-5.97273438 33.95582031 -5.06265625 33.94679688 -4.125 33.9375 C-3.22007812 33.92589844 -2.31515625 33.91429687 -1.3828125 33.90234375 C1 34 1 34 3 35 C3 35.66 3 36.32 3 37 C-7.8437307 37.62260655 -7.8437307 37.62260655 -12.25 35.25 C-14 33 -14 33 -14 29 C-15.32 28.34 -16.64 27.68 -18 27 C-18.33 21.06 -18.66 15.12 -19 9 C-18.34 9 -17.68 9 -17 9 C-16.67 8.01 -16.34 7.02 -16 6 C-14.68 6 -13.36 6 -12 6 C-11.566875 4.7934375 -11.566875 4.7934375 -11.125 3.5625 C-8.95097044 -1.38945623 -4.78569868 -0.07718869 0 0 Z " fill="#5AB148" transform="translate(295,279)"/>
<path d="M0 0 C0.66 0 1.32 0 2 0 C2 20.79 2 41.58 2 63 C7.61 63 13.22 63 19 63 C19 63.66 19 64.32 19 65 C15.45910606 66.08749814 12.1292914 66.16650005 8.4375 66.1875 C7.30183594 66.20167969 6.16617187 66.21585937 4.99609375 66.23046875 C2 66 2 66 -1 64 C-1.36749268 61.37449646 -1.36749268 61.37449646 -1.35644531 58.00561523 C-1.35944641 56.74768661 -1.36244751 55.489758 -1.36553955 54.19371033 C-1.35353474 52.81533399 -1.3410518 51.43696175 -1.328125 50.05859375 C-1.3250683 48.65137432 -1.3231915 47.24415187 -1.32244873 45.83692932 C-1.31784318 42.88701816 -1.30340689 39.93737961 -1.28125 36.98754883 C-1.25294139 33.19867524 -1.2420363 29.41001632 -1.2375679 25.62104702 C-1.23341944 22.7154982 -1.22360722 19.80999316 -1.21169281 16.90446663 C-1.20597989 15.50696223 -1.20122458 14.10945359 -1.19742584 12.71194267 C-1.19058223 10.762933 -1.1760556 8.8139548 -1.16113281 6.86499023 C-1.15430481 5.75405502 -1.14747681 4.64311981 -1.14044189 3.4985199 C-1 1 -1 1 0 0 Z " fill="#5C806E" transform="translate(487,266)"/>
<path d="M0 0 C4.62 0 9.24 0 14 0 C13.67 0.99 13.34 1.98 13 3 C12.33613281 3.02578125 11.67226563 3.0515625 10.98828125 3.078125 C9.66376953 3.16320312 9.66376953 3.16320312 8.3125 3.25 C7.44238281 3.29640625 6.57226562 3.3428125 5.67578125 3.390625 C2.08410279 4.20858389 0.54466493 5.31694975 -2 8 C-2.47901346 11.04936225 -2.65227103 13.55317345 -2.6015625 16.59765625 C-2.60956879 17.42833115 -2.61757507 18.25900604 -2.62582397 19.11485291 C-2.64888729 21.7645665 -2.63942829 24.41274506 -2.625 27.0625 C-2.62115537 29.71553717 -2.62455637 32.36789809 -2.64559937 35.02085876 C-2.65771091 36.67020101 -2.65498235 38.31973313 -2.63589478 39.9690094 C-2.66290158 45.49234693 -2.66290158 45.49234693 -4.33374023 48.00854492 C-6.99223534 49.5903982 -9.38736548 49.31924255 -12.4375 49.25 C-14.13712891 49.22679687 -14.13712891 49.22679687 -15.87109375 49.203125 C-18.4195311 49.03768337 -20.57106269 48.74002021 -23 48 C-23 47.34 -23 46.68 -23 46 C-17.39 46 -11.78 46 -6 46 C-6 33.13 -6 20.26 -6 7 C-5.34 7 -4.68 7 -4 7 C-4 6.01 -4 5.02 -4 4 C-3.34 4 -2.68 4 -2 4 C-1.34 2.68 -0.68 1.36 0 0 Z " fill="#779E86" transform="translate(467,283)"/>
<path d="M0 0 C10.23 0 20.46 0 31 0 C31 3.63 31 7.26 31 11 C30 12 30 12 27.22436523 12.11352539 C26.01466064 12.10828857 24.80495605 12.10305176 23.55859375 12.09765625 C22.25341797 12.09443359 20.94824219 12.09121094 19.60351562 12.08789062 C18.2148431 12.07953401 16.82617123 12.07106905 15.4375 12.0625 C14.04492344 12.05748666 12.65234519 12.05292347 11.25976562 12.04882812 C7.83982549 12.03699442 4.4199075 12.01905831 1 12 C1 18.27 1 24.54 1 31 C12.22 31 23.44 31 35 31 C35 31.66 35 32.32 35 33 C23.12 33 11.24 33 -1 33 C-1 25.74 -1 18.48 -1 11 C2.49323462 10.12669134 5.294432 9.81091314 8.859375 9.68359375 C10.53193359 9.62075195 10.53193359 9.62075195 12.23828125 9.55664062 C13.39714844 9.51732422 14.55601562 9.47800781 15.75 9.4375 C16.92433594 9.39431641 18.09867188 9.35113281 19.30859375 9.30664062 C22.20561451 9.20065206 25.10271935 9.09858362 28 9 C28.33 6.69 28.66 4.38 29 2 C19.43 1.67 9.86 1.34 0 1 C0 0.67 0 0.34 0 0 Z " fill="#49AC36" transform="translate(219,282)"/>
<path d="M0 0 C3.16595501 0.56534911 6.0410416 1.76710066 9 3 C5.88225012 6.29590701 2.96519388 8.79711451 -1 11 C-1.33 11.33 -1.66 11.66 -2 12 C-3.66608987 12.04384447 -5.33380554 12.0396713 -7 12 C-10.11656916 11.86033523 -10.11656916 11.86033523 -13.4375 13 C-17 14 -17 14 -21 14 C-19.90711818 10.72135454 -19.33827067 10.21865851 -16.625 8.3125 C-16.01914062 7.87550781 -15.41328125 7.43851562 -14.7890625 6.98828125 C-13 6 -13 6 -10 6 C-9.67 4.35 -9.34 2.7 -9 1 C-7.700625 1.020625 -6.40125 1.04125 -5.0625 1.0625 C-3.70834367 1.08399454 -2.35243917 1.07148199 -1 1 C-0.67 0.67 -0.34 0.34 0 0 Z " fill="#668278" transform="translate(373,288)"/>
<path d="M0 0 C0.66 0 1.32 0 2 0 C4.50999206 8.0528912 5.3674739 15.72759909 5.5 24.125 C5.53029297 25.04949951 5.56058594 25.97399902 5.59179688 26.92651367 C5.59361619 29.38918913 5.54156281 31.5972007 5 34 C2.64453125 35.94921875 2.64453125 35.94921875 0 37 C-1.7041054 38.62836738 -3.38025441 40.28769752 -5 42 C-2.26027397 33.61643836 -2.26027397 33.61643836 -0.8125 30.1875 C0.23212435 27.76396971 0.23212435 27.76396971 0 24 C-0.66 24 -1.32 24 -2 24 C-2.96782198 20.2173155 -2.92960426 17.49559275 -2.125 13.6875 C-1.21050951 9.12740551 -0.52305877 4.62035251 0 0 Z " fill="#5382A5" transform="translate(183,262)"/>
<path d="M0 0 C0.495 1.98 0.495 1.98 1 4 C-6.07140743 10.6151876 -13.93946412 11.54510252 -23.3359375 11.37109375 C-29.17386305 10.77983263 -34.52042503 9.03891162 -40 7 C-40.33 5.35 -40.66 3.7 -41 2 C-39.1838018 2.42188459 -37.37205927 2.86299165 -35.5625 3.3125 C-34.55316406 3.55613281 -33.54382813 3.79976563 -32.50390625 4.05078125 C-31.67761719 4.36402344 -30.85132813 4.67726563 -30 5 C-29.67 5.99 -29.34 6.98 -29 8 C-28.01 7.67 -27.02 7.34 -26 7 C-24.52034074 6.85426942 -23.03596157 6.75336732 -21.55078125 6.68359375 C-20.70322266 6.64169922 -19.85566406 6.59980469 -18.98242188 6.55664062 C-18.10134766 6.51732422 -17.22027344 6.47800781 -16.3125 6.4375 C-14.97348633 6.37272461 -14.97348633 6.37272461 -13.60742188 6.30664062 C-11.40509892 6.20064647 -9.20266527 6.09857949 -7 6 C-7 5.34 -7 4.68 -7 4 C-5.35 4 -3.7 4 -2 4 C-1.34 2.68 -0.68 1.36 0 0 Z " fill="#64B556" transform="translate(314,322)"/>
<path d="M0 0 C0 0.99 0 1.98 0 3 C-1.6396875 3.8353125 -1.6396875 3.8353125 -3.3125 4.6875 C-6.68037367 6.58959869 -8.32185976 8.44629125 -10 12 C-7.36 12.99 -4.72 13.98 -2 15 C-2.33 15.99 -2.66 16.98 -3 18 C-4.65 17.67 -6.3 17.34 -8 17 C-8.33 16.01 -8.66 15.02 -9 14 C-13.7963081 14.71435205 -13.7963081 14.71435205 -17.35546875 17.69140625 C-18.32087881 19.41659751 -19.16943988 21.20599015 -20 23 C-20.99 22.67 -21.98 22.34 -23 22 C-22.63308565 15.8847608 -21.26904179 13.16739794 -17 9 C-16.01 9 -15.02 9 -14 9 C-13.93554688 8.39671875 -13.87109375 7.7934375 -13.8046875 7.171875 C-12.66369796 4.092311 -11.04903576 3.62302549 -8.125 2.25 C-7.24070312 1.82203125 -6.35640625 1.3940625 -5.4453125 0.953125 C-3 0 -3 0 0 0 Z " fill="#5F7F75" transform="translate(344,266)"/>
<path d="M0 0 C7.34918342 -0.43230491 13.90215087 1.18225815 21 3 C20.49396008 5.16874252 20.00016187 6.99967627 19 9 C17.86820313 8.97679687 16.73640625 8.95359375 15.5703125 8.9296875 C14.08854825 8.91093099 12.60677688 8.89273066 11.125 8.875 C10.00544922 8.84986328 10.00544922 8.84986328 8.86328125 8.82421875 C6.90805539 8.8066041 4.95257979 8.89679811 3 9 C2.34 9.66 1.68 10.32 1 11 C-0.20272819 8.59454362 -0.10071472 7.05003047 -0.0625 4.375 C-0.05347656 3.55773437 -0.04445313 2.74046875 -0.03515625 1.8984375 C-0.02355469 1.27195313 -0.01195313 0.64546875 0 0 Z " fill="#5484A6" transform="translate(111,206)"/>
<path d="M0 0 C11.22 0 22.44 0 34 0 C34 4.62 34 9.24 34 14 C19.15 14 4.3 14 -11 14 C-9 12 -9 12 -6.51660156 11.75708008 C-4.96924316 11.76324341 -4.96924316 11.76324341 -3.390625 11.76953125 C-2.24891846 11.77082031 -1.10721191 11.77210938 0.0690918 11.7734375 C1.89114136 11.79277344 1.89114136 11.79277344 3.75 11.8125 C5.58461792 11.82216797 5.58461792 11.82216797 7.45629883 11.83203125 C15.68610775 11.90205821 23.80402559 12.22861417 32 13 C31.505 7.555 31.505 7.555 31 2 C29.93523437 2.01160156 28.87046875 2.02320313 27.7734375 2.03515625 C18.45633255 2.10416386 9.28753014 1.8242499 0 1 C0 0.67 0 0.34 0 0 Z " fill="#339C1C" transform="translate(220,315)"/>
<path d="M0 0 C0 0.66 0 1.32 0 2 C-4.94881513 2.90896604 -9.06532787 3.08562787 -14 2 C-14.33 1.34 -14.66 0.68 -15 0 C-19.09722573 -0.40972257 -21.50293313 0.12091168 -25 2.125 C-28.2306982 3.90188401 -28.66685566 4.07138807 -32.5 3.25 C-33.325 2.8375 -34.15 2.425 -35 2 C-25.53189653 -6.60736679 -10.82098302 -6.05975049 0 0 Z " fill="#68BA5A" transform="translate(309,267)"/>
<path d="M0 0 C3.20540265 1.37374399 5.35234191 3.27748997 7.87890625 5.65234375 C9.69603676 7.18491243 11.46665756 8.14737005 13.625 9.125 C13.625 10.775 13.625 12.425 13.625 14.125 C12.305 14.455 10.985 14.785 9.625 15.125 C9.295 12.815 8.965 10.505 8.625 8.125 C7.903125 8.310625 7.18125 8.49625 6.4375 8.6875 C3.43826612 9.15404749 1.56358317 8.77005484 -1.375 8.125 C-3.3746441 8.08727087 -5.37554061 8.07850094 -7.375 8.125 C-7.375 4.125 -7.375 4.125 -5.1875 1.8125 C-2.375 0.125 -2.375 0.125 0 0 Z " fill="#50A83A" transform="translate(307.375,305.875)"/>
<path d="M0 0 C1.15371094 -0.01417969 2.30742187 -0.02835937 3.49609375 -0.04296875 C6.5625 0.1875 6.5625 0.1875 9.5625 2.1875 C8.9025 2.8475 8.2425 3.5075 7.5625 4.1875 C2.9425 4.1875 -1.6775 4.1875 -6.4375 4.1875 C-6.4375 22.3375 -6.4375 40.4875 -6.4375 59.1875 C-6.7675 59.1875 -7.0975 59.1875 -7.4375 59.1875 C-7.9325 30.4775 -7.9325 30.4775 -8.4375 1.1875 C-5.60362485 -0.22943757 -3.15720627 0.0175987 0 0 Z " fill="#1F4835" transform="translate(451.4375,264.8125)"/>
<path d="M0 0 C2.24203164 3.36304746 2.30255144 4.73639236 2.44921875 8.69140625 C2.49240234 9.80064453 2.53558594 10.90988281 2.58007812 12.05273438 C2.63325195 13.79006836 2.63325195 13.79006836 2.6875 15.5625 C2.73455078 16.72458984 2.78160156 17.88667969 2.83007812 19.08398438 C3.13676331 27.72647338 3.13676331 27.72647338 2 30 C-1.48027742 31.16009247 -4.33321643 31.20416521 -8 31.25 C-9.2375 31.27578125 -10.475 31.3015625 -11.75 31.328125 C-15 31 -15 31 -18 28 C-12.06 28 -6.12 28 0 28 C0 18.76 0 9.52 0 0 Z " fill="#5D846F" transform="translate(419,301)"/>
<path d="M0 0 C2.31 0 4.62 0 7 0 C7 4.95 7 9.9 7 15 C-4.22 15 -15.44 15 -27 15 C-27 14.67 -27 14.34 -27 14 C-23.20925463 13.11436911 -19.71304102 12.88318699 -15.82421875 12.90234375 C-14.66728516 12.90556641 -13.51035156 12.90878906 -12.31835938 12.91210938 C-11.12017578 12.92048828 -9.92199219 12.92886719 -8.6875 12.9375 C-6.8612207 12.94426758 -6.8612207 12.94426758 -4.99804688 12.95117188 C-1.99864774 12.96293422 1.00065089 12.97937174 4 13 C3.98839844 12.38511719 3.97679687 11.77023437 3.96484375 11.13671875 C3.95582031 10.32847656 3.94679687 9.52023438 3.9375 8.6875 C3.92589844 7.88699219 3.91429687 7.08648437 3.90234375 6.26171875 C4 4 4 4 5 1 C3.35 1 1.7 1 0 1 C0 0.67 0 0.34 0 0 Z " fill="#309D1A" transform="translate(247,246)"/>
<path d="M0 0 C0.66 0 1.32 0 2 0 C2 1.32 2 2.64 2 4 C2.66 4 3.32 4 4 4 C4.125 6.375 4.125 6.375 4 9 C3.34 9.66 2.68 10.32 2 11 C0.68 11 -0.64 11 -2 11 C-2.33 12.32 -2.66 13.64 -3 15 C-4.32 15 -5.64 15 -7 15 C-7.28855285 10.0946016 -7.26204794 6.8445565 -4 3 C-2.68 3 -1.36 3 0 3 C0 2.01 0 1.02 0 0 Z " fill="#7C8D84" transform="translate(392,277)"/>
<path d="M0 0 C0.98097656 0.15339844 1.96195313 0.30679687 2.97265625 0.46484375 C7.11808732 1.05704819 11.25870695 1.32928282 15.4375 1.5625 C16.16904297 1.60568359 16.90058594 1.64886719 17.65429688 1.69335938 C19.43604715 1.79816821 21.21800402 1.89945521 23 2 C23 2.99 23 3.98 23 5 C14.81013979 7.41795873 6.64780581 6.52975653 -1 3 C-0.67 2.01 -0.34 1.02 0 0 Z " fill="#809C8F" transform="translate(539,327)"/>
<path d="M0 0 C2.72869407 0.03287583 5.2966618 0.56397771 8 1 C8 1.99 8 2.98 8 4 C5.69 4.33 3.38 4.66 1 5 C1 5.7425 1 6.485 1 7.25 C-0.20665714 10.56830714 -0.98992519 10.80059811 -4.0625 12.3125 C-5.36728944 12.89266121 -6.67773548 13.46085342 -8 14 C-8.125 11.125 -8.125 11.125 -8 8 C-7.34 7.34 -6.68 6.68 -6 6 C-5.01 6 -4.02 6 -3 6 C-2.814375 5.071875 -2.814375 5.071875 -2.625 4.125 C-2 2 -2 2 0 0 Z " fill="#3F9F2C" transform="translate(272,269)"/>
<path d="M0 0 C0.66 0 1.32 0 2 0 C4.37321711 8.08719369 3.66895458 14.80928447 2 23 C0.68 23.33 -0.64 23.66 -2 24 C-2.96782198 20.2173155 -2.92960426 17.49559275 -2.125 13.6875 C-1.21050951 9.12740551 -0.52305877 4.62035251 0 0 Z " fill="#598CB0" transform="translate(183,262)"/>
<path d="M0 0 C2.64 0.33 5.28 0.66 8 1 C8.33 1.99 8.66 2.98 9 4 C10.2375 3.9071875 10.2375 3.9071875 11.5 3.8125 C15.88193696 4.04724662 18.95495082 5.32618654 23 7 C22.67 8.65 22.34 10.3 22 12 C20.68 12.33 19.36 12.66 18 13 C17.67 12.01 17.34 11.02 17 10 C16.34 10 15.68 10 15 10 C14.67 8.68 14.34 7.36 14 6 C12.80375 5.87625 11.6075 5.7525 10.375 5.625 C6.72403187 5.17674946 3.45475101 4.29553163 0 3 C0 2.01 0 1.02 0 0 Z " fill="#93ACA3" transform="translate(341,282)"/>
<path d="M0 0 C0 0.66 0 1.32 0 2 C-3.48581134 3.74290567 -7.72634862 3.32858669 -11.58984375 3.4296875 C-13.83523675 3.50389927 -13.83523675 3.50389927 -17 4 C-17.99 5.485 -17.99 5.485 -19 7 C-20.32 6.67 -21.64 6.34 -23 6 C-22.5 3.625 -22.5 3.625 -21 1 C-14.08955643 -1.86848601 -7.29658241 -0.82309009 0 0 Z " fill="#608070" transform="translate(561,264)"/>
<path d="M0 0 C1.32 0 2.64 0 4 0 C4.33 1.98 4.66 3.96 5 6 C6.98 6.66 8.96 7.32 11 8 C11 8.99 11 9.98 11 11 C7.81680668 12.06106444 6.98060942 11.96156637 3.875 11.125 C2.81925781 10.85042969 2.81925781 10.85042969 1.7421875 10.5703125 C0 10 0 10 -1 9 C-0.91062197 7.47480724 -0.75462854 5.95318071 -0.5625 4.4375 C-0.46066406 3.61121094 -0.35882813 2.78492188 -0.25390625 1.93359375 C-0.17011719 1.29550781 -0.08632812 0.65742188 0 0 Z " fill="#57955A" transform="translate(125,346)"/>
<path d="M0 0 C0.99 0 1.98 0 3 0 C2.0026554 7.04007955 0.7758018 13.43901392 -2 20 C-3.32 20 -4.64 20 -6 20 C-6 18.35 -6 16.7 -6 15 C-5.34 15 -4.68 15 -4 15 C-3.67 11.04 -3.34 7.08 -3 3 C-2.67 3.99 -2.34 4.98 -2 6 C-1.01 6 -0.02 6 1 6 C0.67 4.02 0.34 2.04 0 0 Z " fill="#5A786E" transform="translate(364,302)"/>
<path d="M0 0 C0.66 0.33 1.32 0.66 2 1 C2.07347656 2.84464844 2.07347656 2.84464844 2.1484375 4.7265625 C2.22351029 6.35939566 2.29905615 7.99220712 2.375 9.625 C2.4059375 10.43324219 2.436875 11.24148438 2.46875 12.07421875 C2.6952946 16.71838314 3.2592668 20.62693856 5 25 C3.33388095 25.042721 1.66617115 25.04063832 0 25 C-1 24 -1 24 -1.1328125 22.20703125 C-1.108568 14.77609281 -0.59752846 7.40508484 0 0 Z " fill="#9DB8A5" transform="translate(535,288)"/>
<path d="M0 0 C1.4765625 1 1.4765625 1 3 3 C3.29834873 5.76118825 3.41911153 8.24548016 3.375 11 C3.38660156 11.72445313 3.39820313 12.44890625 3.41015625 13.1953125 C3.38079404 18.50008578 3.38079404 18.50008578 1.4765625 21 C0.98929687 21.33 0.50203125 21.66 0 22 C-1.53380048 14.71444771 -1.53380048 7.28555229 0 0 Z " fill="#67897C" transform="translate(319,288)"/>
<path d="M0 0 C0.66 0.33 1.32 0.66 2 1 C2 1.66 2 2.32 2 3 C1.34 3 0.68 3 0 3 C-0.268125 3.86625 -0.53625 4.7325 -0.8125 5.625 C-1.97111987 8.91791964 -3.38209839 11.91127875 -5 15 C-5.66 14.67 -6.32 14.34 -7 14 C-7.62589928 5.86330935 -7.62589928 5.86330935 -5.1875 2.5 C-3 1 -3 1 0 0 Z " fill="#4A6D59" transform="translate(492,234)"/>
<path d="M0 0 C1.9375 0.75 1.9375 0.75 4 2 C4.62890625 4.078125 4.62890625 4.078125 5 6 C5.69867188 5.98839844 6.39734375 5.97679687 7.1171875 5.96484375 C8.02726562 5.95582031 8.93734375 5.94679688 9.875 5.9375 C10.77992188 5.92589844 11.68484375 5.91429687 12.6171875 5.90234375 C15 6 15 6 17 7 C17 7.66 17 8.32 17 9 C6.19483006 9.62039253 6.19483006 9.62039253 1.75 7.3125 C0 5 0 5 -0.3125 2.25 C-0.209375 1.5075 -0.10625 0.765 0 0 Z " fill="#69B65F" transform="translate(281,307)"/>
<path d="M0 0 C-1.83491188 4.74018901 -3.91941459 9.36413251 -6 14 C-6.99 13.67 -7.98 13.34 -9 13 C-8.65093723 7.18228715 -6.99132705 0 0 0 Z " fill="#7B938C" transform="translate(330,275)"/>
<path d="M0 0 C0 0.99 0 1.98 0 3 C-3.77542477 3.8723255 -7.31480698 4.16344601 -11.1875 4.1875 C-12.23292969 4.20167969 -13.27835937 4.21585937 -14.35546875 4.23046875 C-17 4 -17 4 -19 2 C-12.53205867 0.48766299 -6.64409958 -0.21432579 0 0 Z " fill="#718E83" transform="translate(363,329)"/>
<path d="M0 0 C0.99 0.33 1.98 0.66 3 1 C5.22818441 1.06937062 7.45834524 1.08457084 9.6875 1.0625 C10.86699219 1.05347656 12.04648437 1.04445313 13.26171875 1.03515625 C14.16535156 1.02355469 15.06898438 1.01195312 16 1 C15.4740625 1.928125 15.4740625 1.928125 14.9375 2.875 C14.628125 3.57625 14.31875 4.2775 14 5 C14.33 5.66 14.66 6.32 15 7 C13.39536551 6.68991116 11.79130769 6.37683713 10.1875 6.0625 C9.29417969 5.88847656 8.40085937 5.71445312 7.48046875 5.53515625 C5 5 5 5 2 4 C2 3.34 2 2.68 2 2 C0.35 2 -1.3 2 -3 2 C-2.01 1.34 -1.02 0.68 0 0 Z " fill="#577B68" transform="translate(540,312)"/>
<path d="M0 0 C2.97 0.495 2.97 0.495 6 1 C6 1.99 6 2.98 6 4 C7.98 4 9.96 4 12 4 C11.34 5.32 10.68 6.64 10 8 C6.6875 8.25 6.6875 8.25 3 8 C1.0625 6.25 1.0625 6.25 0 4 C0 2.68 0 1.36 0 0 Z " fill="#748A84" transform="translate(321,311)"/>
<path d="M0 0 C1.32 0.33 2.64 0.66 4 1 C1.25429191 5.64658292 -1.15560756 8.32012333 -6 11 C-9 11 -9 11 -10.6875 9.625 C-12 8 -12 8 -12 6 C-11.01 6 -10.02 6 -9 6 C-9 6.66 -9 7.32 -9 8 C-8.34 8 -7.68 8 -7 8 C-7 7.34 -7 6.68 -7 6 C-6.030625 5.7525 -5.06125 5.505 -4.0625 5.25 C-3.051875 4.8375 -2.04125 4.425 -1 4 C-0.03122943 1.96756452 -0.03122943 1.96756452 0 0 Z " fill="#61B753" transform="translate(314,279)"/>
<path d="M0 0 C3.35595828 0.59927826 5.37801226 1.84622436 8 4 C8.33 3.67 8.66 3.34 9 3 C10.66617115 2.95936168 12.33388095 2.957279 14 3 C13.67 4.32 13.34 5.64 13 7 C6.6 8.23076923 6.6 8.23076923 3.5625 7.0625 C3.046875 6.711875 2.53125 6.36125 2 6 C2 4.68 2 3.36 2 2 C1.34 2 0.68 2 0 2 C0 1.34 0 0.68 0 0 Z " fill="#709487" transform="translate(373,274)"/>
<path d="M0 0 C2.375 0.875 2.375 0.875 5.375 2.875 C5.375 3.535 5.375 4.195 5.375 4.875 C2.735 4.545 0.095 4.215 -2.625 3.875 C-2.955 4.865 -3.285 5.855 -3.625 6.875 C-5.6875 7.5625 -5.6875 7.5625 -7.625 7.875 C-7.625 3.875 -7.625 3.875 -5.4375 1.5625 C-2.625 -0.125 -2.625 -0.125 0 0 Z " fill="#90CC85" transform="translate(307.625,306.125)"/>
<path d="M0 0 C-1.33740559 4.01221677 -3.3307558 5.00283008 -6.8671875 7.11328125 C-9 8 -9 8 -12.3125 7.5 C-14.6791003 6.17910681 -16.29536773 5.08343944 -18 3 C-14.66666667 3 -11.33333333 3 -8 3 C-7.360625 2.505 -6.72125 2.01 -6.0625 1.5 C-4 0 -4 0 0 0 Z " fill="#78958A" transform="translate(359,294)"/>
<path d="M0 0 C0.99 0.33 1.98 0.66 3 1 C0.89285714 6.99725275 0.89285714 6.99725275 -2 9 C-4.1875 8.6875 -4.1875 8.6875 -6 8 C-6 6.02 -6 4.04 -6 2 C-5.38125 1.855625 -4.7625 1.71125 -4.125 1.5625 C-1.96741678 1.06847775 -1.96741678 1.06847775 0 0 Z " fill="#628772" transform="translate(468,266)"/>
<path d="M0 0 C6.51722911 0.33709806 9.32539218 1.44225737 14 6 C10.16652698 7.27782434 7.91272241 6.96101954 4 6 C0 1.8974359 0 1.8974359 0 0 Z " fill="#47AA34" transform="translate(265,319)"/>
<path d="M0 0 C0.94875 0.04125 1.8975 0.0825 2.875 0.125 C1.87296679 3.13109963 1.27471554 4.18676821 -1.125 6.125 C-2.115 6.125 -3.105 6.125 -4.125 6.125 C-4.125 10.745 -4.125 15.365 -4.125 20.125 C-4.455 20.125 -4.785 20.125 -5.125 20.125 C-5.17879226 17.16642591 -5.21857093 14.20882279 -5.25 11.25 C-5.26675781 10.40824219 -5.28351562 9.56648438 -5.30078125 8.69921875 C-5.30722656 7.89355469 -5.31367187 7.08789062 -5.3203125 6.2578125 C-5.33602295 5.14237061 -5.33602295 5.14237061 -5.35205078 4.00439453 C-4.91904113 0.42019204 -3.366484 0.13465936 0 0 Z " fill="#50715E" transform="translate(539.125,281.875)"/>
<path d="M0 0 C0 0.66 0 1.32 0 2 C-4.94881513 2.90896604 -9.06532787 3.08562787 -14 2 C-14.33 1.34 -14.66 0.68 -15 0 C-4.44191344 -2.66514806 -4.44191344 -2.66514806 0 0 Z " fill="#55AE44" transform="translate(309,267)"/>
<path d="M0 0 C2.64 0 5.28 0 8 0 C8 5.28 8 10.56 8 16 C7.34 16 6.68 16 6 16 C6 11.71 6 7.42 6 3 C3.03 2.505 3.03 2.505 0 2 C0 1.34 0 0.68 0 0 Z " fill="#4E6E5D" transform="translate(473,265)"/>
<path d="M0 0 C0.33 1.32 0.66 2.64 1 4 C-3.77618266 7.89635954 -5.80401645 9.13469529 -12 9 C-12 8.01 -12 7.02 -12 6 C-10.35 6 -8.7 6 -7 6 C-7 5.34 -7 4.68 -7 4 C-5.35 4 -3.7 4 -2 4 C-1.34 2.68 -0.68 1.36 0 0 Z " fill="#77C16B" transform="translate(314,322)"/>
<path d="M0 0 C1.65 0.33 3.3 0.66 5 1 C5.33 1.99 5.66 2.98 6 4 C2.40389031 6.39740646 0.69907673 6.23987692 -3.5625 6.1875 C-4.71878906 6.18105469 -5.87507813 6.17460937 -7.06640625 6.16796875 C-10 6 -10 6 -12 5 C-12 4.34 -12 3.68 -12 3 C-7.05 3.33 -2.1 3.66 3 4 C3 3.34 3 2.68 3 2 C2.01 1.67 1.02 1.34 0 1 C0 0.67 0 0.34 0 0 Z " fill="#34A320" transform="translate(295,312)"/>
<path d="M0 0 C2.31 0 4.62 0 7 0 C7 4.95 7 9.9 7 15 C6.01 15 5.02 15 4 15 C3.97294271 13.22925083 3.95357805 11.45838289 3.9375 9.6875 C3.92589844 8.70136719 3.91429687 7.71523437 3.90234375 6.69921875 C4 4 4 4 5 1 C3.35 1 1.7 1 0 1 C0 0.67 0 0.34 0 0 Z " fill="#3D952C" transform="translate(247,246)"/>
<path d="M0 0 C2.31 0.33 4.62 0.66 7 1 C7.33 1.99 7.66 2.98 8 4 C11.63 4.33 15.26 4.66 19 5 C19 5.33 19 5.66 19 6 C11.56621057 6.33452052 5.80122845 6.13902852 -1 3 C-0.67 2.01 -0.34 1.02 0 0 Z " fill="#5F806E" transform="translate(539,327)"/>
<path d="M0 0 C4.29 0.66 8.58 1.32 13 2 C12.67 2.66 12.34 3.32 12 4 C11.01 4 10.02 4 9 4 C9 4.66 9 5.32 9 6 C8.34 6 7.68 6 7 6 C7 5.34 7 4.68 7 4 C6.01 4 5.02 4 4 4 C4 4.66 4 5.32 4 6 C4.99 6.33 5.98 6.66 7 7 C6.67 7.66 6.34 8.32 6 9 C3.69 7.35 1.38 5.7 -1 4 C-0.34 3.34 0.32 2.68 1 2 C0.67 1.34 0.34 0.68 0 0 Z " fill="#34A01E" transform="translate(298,281)"/>
<path d="M0 0 C0.66 0.33 1.32 0.66 2 1 C1.67278832 4.05397571 0.96883223 5.03116777 -1.25 7.25 C-4.20989673 9.13357065 -5.57508802 9.39141851 -9 9 C-7.48328036 4.44984107 -3.83108947 2.49942736 0 0 Z " fill="#779286" transform="translate(375,291)"/>
<path d="M0 0 C0.66 0 1.32 0 2 0 C2 1.32 2 2.64 2 4 C2.66 4 3.32 4 4 4 C4 5.65 4 7.3 4 9 C3.01 9.495 3.01 9.495 2 10 C2 9.34 2 8.68 2 8 C1.01 8 0.02 8 -1 8 C-1 7.34 -1 6.68 -1 6 C-2.32 6 -3.64 6 -5 6 C-4.67 5.01 -4.34 4.02 -4 3 C-2.68 3 -1.36 3 0 3 C0 2.01 0 1.02 0 0 Z " fill="#6C7E75" transform="translate(392,277)"/>
<path d="M0 0 C3.98542514 1.36643148 6.92539863 3.10109014 10 6 C10 6.99 10 7.98 10 9 C9.34 9 8.68 9 8 9 C8 8.34 8 7.68 8 7 C6.8553125 7.12375 6.8553125 7.12375 5.6875 7.25 C3 7 3 7 1.1875 5.1875 C0 3 0 3 0 0 Z " fill="#68BB59" transform="translate(310,269)"/>
<path d="M0 0 C1.32 0 2.64 0 4 0 C4.66 1.98 5.32 3.96 6 6 C6.66 6 7.32 6 8 6 C6.63016497 9.16115776 6.0109362 9.9927092 3 12 C1 9 1 9 1.375 5.8125 C1.58125 4.884375 1.7875 3.95625 2 3 C1.01 2.34 0.02 1.68 -1 1 C-0.67 0.67 -0.34 0.34 0 0 Z " fill="#40A028" transform="translate(312,314)"/>
<path d="M0 0 C2.31 0.66 4.62 1.32 7 2 C6.67 3.65 6.34 5.3 6 7 C4.68 7.33 3.36 7.66 2 8 C1.67 7.01 1.34 6.02 1 5 C0.34 5 -0.32 5 -1 5 C-0.67 3.35 -0.34 1.7 0 0 Z " fill="#7C968D" transform="translate(357,287)"/>
<path d="M0 0 C1.65 0 3.3 0 5 0 C4.8125 1.8125 4.8125 1.8125 4 4 C0.65188866 6.53370588 -0.70124217 7 -5 7 C-5 6.34 -5 5.68 -5 5 C-4.34 5 -3.68 5 -3 5 C-3 4.34 -3 3.68 -3 3 C-2.34 3 -1.68 3 -1 3 C-0.67 2.01 -0.34 1.02 0 0 Z " fill="#7F948C" transform="translate(369,323)"/>
<path d="M0 0 C-1.86443924 3.54243456 -3.12119689 5.70706563 -7 7 C-8.32 7 -9.64 7 -11 7 C-9.91072362 3.73217086 -9.31652071 3.18062667 -6.625 1.25 C-6.01914062 0.80140625 -5.41328125 0.3528125 -4.7890625 -0.109375 C-3 -1 -3 -1 0 0 Z " fill="#46675C" transform="translate(363,295)"/>
<path d="M0 0 C4.29 0.99 8.58 1.98 13 3 C13 3.66 13 4.32 13 5 C9.04 5 5.08 5 1 5 C0.67 3.35 0.34 1.7 0 0 Z " fill="#486B60" transform="translate(342,285)"/>
<path d="M0 0 C1.32 0 2.64 0 4 0 C4 1.65 4 3.3 4 5 C2.02 5.99 2.02 5.99 0 7 C0 7.66 0 8.32 0 9 C-0.66 9 -1.32 9 -2 9 C-2.25 3.375 -2.25 3.375 0 0 Z " fill="#609F63" transform="translate(172,299)"/>
<path d="M0 0 C0.33 1.32 0.66 2.64 1 4 C-2.96 4 -6.92 4 -11 4 C-11 3.34 -11 2.68 -11 2 C-7.17679443 0.57741188 -4.08718695 -0.24042276 0 0 Z " fill="#80A18F" transform="translate(555,279)"/>
<path d="M0 0 C-0.33 2.97 -0.66 5.94 -1 9 C-2.65 8.67 -4.3 8.34 -6 8 C-5.62403791 5.21788056 -5.32681541 3.4120716 -3.5625 1.1875 C-2 0 -2 0 0 0 Z " fill="#6E8A7E" transform="translate(338,319)"/>
<path d="M0 0 C6.52307692 -0.36923077 6.52307692 -0.36923077 8.9375 1.5 C9.288125 1.995 9.63875 2.49 10 3 C9.34 4.32 8.68 5.64 8 7 C7.34 7 6.68 7 6 7 C6 6.34 6 5.68 6 5 C5.34 5 4.68 5 4 5 C4 4.01 4 3.02 4 2 C2.68 2 1.36 2 0 2 C0 1.34 0 0.68 0 0 Z " fill="#607E6C" transform="translate(497,235)"/>
<path d="M0 0 C2.97 0 5.94 0 9 0 C9 1.32 9 2.64 9 4 C5.7 3.67 2.4 3.34 -1 3 C-0.67 2.01 -0.34 1.02 0 0 Z " fill="#668379" transform="translate(354,266)"/>
<path d="M0 0 C0.33 0 0.66 0 1 0 C1 3.63 1 7.26 1 11 C-0.32 11 -1.64 11 -3 11 C-2.25 3.375 -2.25 3.375 0 0 Z " fill="#69907A" transform="translate(507,242)"/>
<path d="M0 0 C2 2 2 2 2.5 4.1875 C1.7382828 8.47215926 -1.03728771 10.94029415 -4 14 C-4 10.62534314 -3.18506921 8.46034008 -2 5.3125 C-1.62875 4.31863281 -1.2575 3.32476562 -0.875 2.30078125 C-0.58625 1.54152344 -0.2975 0.78226562 0 0 Z " fill="#598CB1" transform="translate(183,290)"/>
<path d="M0 0 C1.67542976 0.28604898 3.34385343 0.61781233 5 1 C4.34 2.65 3.68 4.3 3 6 C1.35 5.67 -0.3 5.34 -2 5 C-1.125 1.125 -1.125 1.125 0 0 Z " fill="#6DAD6D" transform="translate(132,335)"/>
<path d="M0 0 C0.66 0 1.32 0 2 0 C2.33 1.98 2.66 3.96 3 6 C2.34 6 1.68 6 1 6 C0.67 6.99 0.34 7.98 0 9 C-1.32 8.67 -2.64 8.34 -4 8 C-2.68 5.36 -1.36 2.72 0 0 Z " fill="#578372" transform="translate(561,303)"/>
<path d="M0 0 C0.98120464 3.05263664 0.98120464 4.94736336 0 8 C-1.32 8.33 -2.64 8.66 -4 9 C-5.125 4.25 -5.125 4.25 -4 2 C-1.9375 0.875 -1.9375 0.875 0 0 Z " fill="#5D92B8" transform="translate(185,277)"/>
<path d="M0 0 C0.66 0 1.32 0 2 0 C1.38722388 2.96175123 0.74627478 4.38058783 -1 7 C-3.2818314 8.48319041 -5.56738224 9.78369112 -8 11 C-7.67 9.68 -7.34 8.36 -7 7 C-5.68 6.67 -4.36 6.34 -3 6 C-2.814375 5.071875 -2.814375 5.071875 -2.625 4.125 C-2 2 -2 2 0 0 Z " fill="#76BF62" transform="translate(272,269)"/>
<path d="M0 0 C-3.07999946 3.67230705 -5.2482602 4.56802365 -10 5 C-9.01906046 2.54765115 -8.31296172 1.2190732 -6.125 -0.3125 C-3.64990694 -1.1132654 -2.41712366 -0.86325845 0 0 Z " fill="#68827B" transform="translate(344,310)"/>
<path d="M0 0 C1.875 0.625 1.875 0.625 4 2 C5.25 5.125 5.25 5.125 6 8 C3.13275314 7.42655063 2.1385485 7.1385485 0 5 C-0.125 2.375 -0.125 2.375 0 0 Z " fill="#88D280" transform="translate(281,307)"/>
<path d="M0 0 C2.475 0.495 2.475 0.495 5 1 C5 2.65 5 4.3 5 6 C3.68 6.33 2.36 6.66 1 7 C0.67 4.69 0.34 2.38 0 0 Z " fill="#6DBB60" transform="translate(316,314)"/>
<path d="M0 0 C2.0625 0.4375 2.0625 0.4375 4 1 C1.53846154 5.8 1.53846154 5.8 -1.1875 6.8125 C-1.785625 6.874375 -2.38375 6.93625 -3 7 C-3.33 6.34 -3.66 5.68 -4 5 C-3.34 5 -2.68 5 -2 5 C-1.7834375 4.0409375 -1.7834375 4.0409375 -1.5625 3.0625 C-1 1 -1 1 0 0 Z " fill="#7E948D" transform="translate(343,313)"/>
<path d="M0 0 C0.99 0.33 1.98 0.66 3 1 C3 3.31 3 5.62 3 8 C2.01 8 1.02 8 0 8 C-0.38063221 5.6739143 -0.71269945 3.33944736 -1 1 C-0.67 0.67 -0.34 0.34 0 0 Z " fill="#6DBA5E" transform="translate(264,311)"/>
<path d="M0 0 C-0.33 1.32 -0.66 2.64 -1 4 C-2.98 4 -4.96 4 -7 4 C-7 2.68 -7 1.36 -7 0 C-2.25 -1.125 -2.25 -1.125 0 0 Z " fill="#4F6C62" transform="translate(386,282)"/>
<path d="M0 0 C0.33 0 0.66 0 1 0 C1 4.29 1 8.58 1 13 C0.01 13.33 -0.98 13.66 -2 14 C-3.49341969 11.01316063 -2.40648676 9.04839022 -1.5625 5.875 C-1.27503906 4.77929688 -0.98757812 3.68359375 -0.69140625 2.5546875 C-0.46324219 1.71164062 -0.23507813 0.86859375 0 0 Z " fill="#4F7A9B" transform="translate(187,283)"/>
<path d="M0 0 C1.07765625 0.00902344 2.1553125 0.01804687 3.265625 0.02734375 C4.08546875 0.03894531 4.9053125 0.05054688 5.75 0.0625 C5.75 0.3925 5.75 0.7225 5.75 1.0625 C2.12 1.0625 -1.51 1.0625 -5.25 1.0625 C-5.25 2.0525 -5.25 3.0425 -5.25 4.0625 C-6.9 4.0625 -8.55 4.0625 -10.25 4.0625 C-10.25 3.0725 -10.25 2.0825 -10.25 1.0625 C-6.78777385 -0.00473961 -3.60960734 -0.03923486 0 0 Z " fill="#63BB52" transform="translate(292.25,262.9375)"/>
<path d="M0 0 C1.22589844 0.01353516 1.22589844 0.01353516 2.4765625 0.02734375 C3.41628906 0.04474609 3.41628906 0.04474609 4.375 0.0625 C4.375 1.0525 4.375 2.0425 4.375 3.0625 C3.09625 3.02125 1.8175 2.98 0.5 2.9375 C-1.64371492 2.82037127 -1.64371492 2.82037127 -3.625 3.0625 C-4.285 3.7225 -4.945 4.3825 -5.625 5.0625 C-5.955 3.7425 -6.285 2.4225 -6.625 1.0625 C-4.21954362 -0.14022819 -2.67503047 -0.03821472 0 0 Z " fill="#5C92B7" transform="translate(117.625,211.9375)"/>
<path d="M0 0 C2.97 0.495 2.97 0.495 6 1 C6 1.99 6 2.98 6 4 C3.69 4.33 1.38 4.66 -1 5 C-0.67 3.35 -0.34 1.7 0 0 Z " fill="#38A122" transform="translate(274,269)"/>
<path d="M0 0 C0.99 0.33 1.98 0.66 3 1 C3 1.66 3 2.32 3 3 C7.62 3 12.24 3 17 3 C17 3.33 17 3.66 17 4 C11.39 4 5.78 4 0 4 C0 2.68 0 1.36 0 0 Z " fill="#1C4A32" transform="translate(402,325)"/>
<path d="M0 0 C3.37462715 0.54723683 5.08235 1.0549 8 3 C8 3.66 8 4.32 8 5 C5.69 4.67 3.38 4.34 1 4 C0.67 2.68 0.34 1.36 0 0 Z " fill="#71BE5F" transform="translate(305,306)"/>
<path d="M0 0 C1.32 0.33 2.64 0.66 4 1 C3.34 1 2.68 1 2 1 C2 2.65 2 4.3 2 6 C0.35 6 -1.3 6 -3 6 C-2.01 4.02 -1.02 2.04 0 0 Z " fill="#4E7467" transform="translate(358,322)"/>
<path d="M0 0 C-2.86299506 2.86299506 -4.65852284 2.99421225 -8.6875 3.0625 C-9.780625 3.041875 -10.87375 3.02125 -12 3 C-8.2391768 -0.7608232 -5.0273023 -0.25136512 0 0 Z " fill="#34A01E" transform="translate(296,266)"/>
<path d="M0 0 C0.99 0.33 1.98 0.66 3 1 C3 4.3 3 7.6 3 11 C2.67 11 2.34 11 2 11 C1.67 8.36 1.34 5.72 1 3 C0.34 3.66 -0.32 4.32 -1 5 C-1.66 4.67 -2.32 4.34 -3 4 C-3 3.34 -3 2.68 -3 2 C-2.01 1.34 -1.02 0.68 0 0 Z " fill="#406F56" transform="translate(506,240)"/>
<path d="M0 0 C0.66 0 1.32 0 2 0 C1.67 2.64 1.34 5.28 1 8 C0.01 8.33 -0.98 8.66 -2 9 C-2 7.35 -2 5.7 -2 4 C-1.34 4 -0.68 4 0 4 C0 2.68 0 1.36 0 0 Z " fill="#7E9A92" transform="translate(360,313)"/>
<path d="M0 0 C-1.45255699 3.82946843 -3.42895561 5.12050295 -7 7 C-7.33 6.34 -7.66 5.68 -8 5 C-7.34 4.67 -6.68 4.34 -6 4 C-5.67 3.01 -5.34 2.02 -5 1 C-2 0 -2 0 0 0 Z " fill="#2F5742" transform="translate(561,311)"/>
<path d="M0 0 C2.475 0.495 2.475 0.495 5 1 C5 2.65 5 4.3 5 6 C4.01 6 3.02 6 2 6 C1.34 4.02 0.68 2.04 0 0 Z " fill="#9FACA9" transform="translate(360,302)"/>
<path d="M0 0 C1.32 0 2.64 0 4 0 C3.34 1.98 2.68 3.96 2 6 C1.34 6 0.68 6 0 6 C-0.38218767 4.34385343 -0.71395102 2.67542976 -1 1 C-0.67 0.67 -0.34 0.34 0 0 Z " fill="#63A365" transform="translate(81,271)"/>
<path d="M0 0 C0.33 0 0.66 0 1 0 C0.91291331 1.45945288 0.80473093 2.91765868 0.6875 4.375 C0.62949219 5.18710937 0.57148438 5.99921875 0.51171875 6.8359375 C0 9 0 9 -3 11 C-2.32829194 7.1936543 -1.27253436 3.64793184 0 0 Z " fill="#589559" transform="translate(181,272)"/>
<path d="M0 0 C1.65 0 3.3 0 5 0 C4.67 1.32 4.34 2.64 4 4 C2.35 4 0.7 4 -1 4 C-0.67 2.68 -0.34 1.36 0 0 Z " fill="#94AEA1" transform="translate(382,277)"/>
<path d="M0 0 C0.66 0.33 1.32 0.66 2 1 C2 1.66 2 2.32 2 3 C1.34 3 0.68 3 0 3 C-0.33 3.99 -0.66 4.98 -1 6 C-1.66 6 -2.32 6 -3 6 C-3 4.35 -3 2.7 -3 1 C-2.01 0.67 -1.02 0.34 0 0 Z " fill="#668678" transform="translate(492,234)"/>
<path d="M0 0 C1.65 0 3.3 0 5 0 C4.67 1.32 4.34 2.64 4 4 C2.68 3.67 1.36 3.34 0 3 C0 2.01 0 1.02 0 0 Z " fill="#93B3AD" transform="translate(359,289)"/>
<path d="M0 0 C1.98 0.495 1.98 0.495 4 1 C2.625 3 2.625 3 1 5 C0.34 5 -0.32 5 -1 5 C-0.67 3.35 -0.34 1.7 0 0 Z " fill="#69BA5C" transform="translate(314,279)"/>
</svg>
